solid OpenSCAD_Model
  facet normal -1 0 0
    outer loop
      vertex 0 0 0
      vertex 0 30 3
      vertex 0 30 0
    endloop
  endfacet
  facet normal -1 -0 0
    outer loop
      vertex 0 30 3
      vertex 0 0 0
      vertex 0 0 3
    endloop
  endfacet
  facet normal -0 0 1
    outer loop
      vertex 8.42705 7.76336 3
      vertex 36 0 3
      vertex 36 30 3
    endloop
  endfacet
  facet normal 0 0 1
    outer loop
      vertex 36 0 3
      vertex 8.42705 7.76336 3
      vertex 9 6 3
    endloop
  endfacet
  facet normal 0 0 1
    outer loop
      vertex 36 30 3
      vertex 6.92705 8.85317 3
      vertex 8.42705 7.76336 3
    endloop
  endfacet
  facet normal -0 0 1
    outer loop
      vertex 0 30 3
      vertex 6.92705 8.85317 3
      vertex 36 30 3
    endloop
  endfacet
  facet normal 0 0 1
    outer loop
      vertex 3.57295 7.76336 3
      vertex 0 30 3
      vertex 3 6 3
    endloop
  endfacet
  facet normal 0 0 1
    outer loop
      vertex 5.07295 8.85317 3
      vertex 0 30 3
      vertex 3.57295 7.76336 3
    endloop
  endfacet
  facet normal 0 0 1
    outer loop
      vertex 6.92705 8.85317 3
      vertex 0 30 3
      vertex 5.07295 8.85317 3
    endloop
  endfacet
  facet normal -0 0 1
    outer loop
      vertex 8.42705 4.23664 3
      vertex 36 0 3
      vertex 9 6 3
    endloop
  endfacet
  facet normal -0 0 1
    outer loop
      vertex 6.92705 3.14683 3
      vertex 36 0 3
      vertex 8.42705 4.23664 3
    endloop
  endfacet
  facet normal 0 0 1
    outer loop
      vertex 0 0 3
      vertex 6.92705 3.14683 3
      vertex 5.07295 3.14683 3
    endloop
  endfacet
  facet normal 0 0 1
    outer loop
      vertex 6.92705 3.14683 3
      vertex 0 0 3
      vertex 36 0 3
    endloop
  endfacet
  facet normal 0 0 1
    outer loop
      vertex 3.57295 4.23664 3
      vertex 0 0 3
      vertex 5.07295 3.14683 3
    endloop
  endfacet
  facet normal 0 0 1
    outer loop
      vertex 3 6 3
      vertex 0 0 3
      vertex 3.57295 4.23664 3
    endloop
  endfacet
  facet normal 0 0 1
    outer loop
      vertex 0 0 3
      vertex 3 6 3
      vertex 0 30 3
    endloop
  endfacet
  facet normal 1 -0 0
    outer loop
      vertex 36 0 3
      vertex 36 30 0
      vertex 36 30 3
    endloop
  endfacet
  facet normal 1 0 0
    outer loop
      vertex 36 30 0
      vertex 36 0 3
      vertex 36 0 0
    endloop
  endfacet
  facet normal 0 1 -0
    outer loop
      vertex 36 30 0
      vertex 0 30 3
      vertex 36 30 3
    endloop
  endfacet
  facet normal 0 1 0
    outer loop
      vertex 0 30 3
      vertex 36 30 0
      vertex 0 30 0
    endloop
  endfacet
  facet normal 0 0 -1
    outer loop
      vertex 0 0 0
      vertex 36 30 0
      vertex 36 0 0
    endloop
  endfacet
  facet normal -0 0 -1
    outer loop
      vertex 36 30 0
      vertex 0 0 0
      vertex 0 30 0
    endloop
  endfacet
  facet normal 0 -1 0
    outer loop
      vertex 0 0 0
      vertex 36 0 3
      vertex 0 0 3
    endloop
  endfacet
  facet normal 0 -1 -0
    outer loop
      vertex 36 0 3
      vertex 0 0 0
      vertex 36 0 0
    endloop
  endfacet
  facet normal -0.951056 -0.309017 0
    outer loop
      vertex 9 6 2
      vertex 8.42705 7.76336 3
      vertex 8.42705 7.76336 2
    endloop
  endfacet
  facet normal -0.951056 -0.309017 0
    outer loop
      vertex 8.42705 7.76336 3
      vertex 9 6 2
      vertex 9 6 3
    endloop
  endfacet
  facet normal 0 -1 0
    outer loop
      vertex 5.07295 8.85317 2
      vertex 6.92705 8.85317 3
      vertex 5.07295 8.85317 3
    endloop
  endfacet
  facet normal 0 -1 -0
    outer loop
      vertex 6.92705 8.85317 3
      vertex 5.07295 8.85317 2
      vertex 6.92705 8.85317 2
    endloop
  endfacet
  facet normal -0.587785 -0.809017 0
    outer loop
      vertex 6.92705 8.85317 2
      vertex 8.42705 7.76336 3
      vertex 6.92705 8.85317 3
    endloop
  endfacet
  facet normal -0.587785 -0.809017 -0
    outer loop
      vertex 8.42705 7.76336 3
      vertex 6.92705 8.85317 2
      vertex 8.42705 7.76336 2
    endloop
  endfacet
  facet normal 0.587785 -0.809017 0
    outer loop
      vertex 3.57295 7.76336 2
      vertex 5.07295 8.85317 3
      vertex 3.57295 7.76336 3
    endloop
  endfacet
  facet normal 0.587785 -0.809017 0
    outer loop
      vertex 5.07295 8.85317 3
      vertex 3.57295 7.76336 2
      vertex 5.07295 8.85317 2
    endloop
  endfacet
  facet normal -0.587785 0.809017 0
    outer loop
      vertex 8.42705 4.23664 2
      vertex 6.92705 3.14683 3
      vertex 8.42705 4.23664 3
    endloop
  endfacet
  facet normal -0.587785 0.809017 0
    outer loop
      vertex 6.92705 3.14683 3
      vertex 8.42705 4.23664 2
      vertex 6.92705 3.14683 2
    endloop
  endfacet
  facet normal 0.587785 0.809017 -0
    outer loop
      vertex 5.07295 3.14683 2
      vertex 3.57295 4.23664 3
      vertex 5.07295 3.14683 3
    endloop
  endfacet
  facet normal 0.587785 0.809017 0
    outer loop
      vertex 3.57295 4.23664 3
      vertex 5.07295 3.14683 2
      vertex 3.57295 4.23664 2
    endloop
  endfacet
  facet normal 0 0 1
    outer loop
      vertex 8.42705 7.76336 2
      vertex 8.42705 4.23664 2
      vertex 9 6 2
    endloop
  endfacet
  facet normal 0 0 1
    outer loop
      vertex 6.92705 8.85317 2
      vertex 8.42705 4.23664 2
      vertex 8.42705 7.76336 2
    endloop
  endfacet
  facet normal 0 0 1
    outer loop
      vertex 6.92705 8.85317 2
      vertex 6.92705 3.14683 2
      vertex 8.42705 4.23664 2
    endloop
  endfacet
  facet normal -0 0 1
    outer loop
      vertex 5.07295 8.85317 2
      vertex 6.92705 3.14683 2
      vertex 6.92705 8.85317 2
    endloop
  endfacet
  facet normal 0 0 1
    outer loop
      vertex 5.07295 8.85317 2
      vertex 5.07295 3.14683 2
      vertex 6.92705 3.14683 2
    endloop
  endfacet
  facet normal -0 0 1
    outer loop
      vertex 3.57295 7.76336 2
      vertex 5.07295 3.14683 2
      vertex 5.07295 8.85317 2
    endloop
  endfacet
  facet normal 0 0 1
    outer loop
      vertex 3.57295 7.76336 2
      vertex 3.57295 4.23664 2
      vertex 5.07295 3.14683 2
    endloop
  endfacet
  facet normal 0 -0 1
    outer loop
      vertex 3.57295 4.23664 2
      vertex 3.57295 7.76336 2
      vertex 3 6 2
    endloop
  endfacet
  facet normal 0.951057 -0.309017 0
    outer loop
      vertex 3 6 3
      vertex 3.57295 7.76336 2
      vertex 3.57295 7.76336 3
    endloop
  endfacet
  facet normal 0.951057 -0.309017 0
    outer loop
      vertex 3.57295 7.76336 2
      vertex 3 6 3
      vertex 3 6 2
    endloop
  endfacet
  facet normal -0.951056 0.309017 0
    outer loop
      vertex 8.42705 4.23664 2
      vertex 9 6 3
      vertex 9 6 2
    endloop
  endfacet
  facet normal -0.951056 0.309017 0
    outer loop
      vertex 9 6 3
      vertex 8.42705 4.23664 2
      vertex 8.42705 4.23664 3
    endloop
  endfacet
  facet normal 0 1 -0
    outer loop
      vertex 6.92705 3.14683 2
      vertex 5.07295 3.14683 3
      vertex 6.92705 3.14683 3
    endloop
  endfacet
  facet normal 0 1 0
    outer loop
      vertex 5.07295 3.14683 3
      vertex 6.92705 3.14683 2
      vertex 5.07295 3.14683 2
    endloop
  endfacet
  facet normal 0.951057 0.309017 0
    outer loop
      vertex 3.57295 4.23664 3
      vertex 3 6 2
      vertex 3 6 3
    endloop
  endfacet
  facet normal 0.951057 0.309017 0
    outer loop
      vertex 3 6 2
      vertex 3.57295 4.23664 3
      vertex 3.57295 4.23664 2
    endloop
  endfacet
  facet normal -1 0 0
    outer loop
      vertex 40 0 0
      vertex 40 30 3
      vertex 40 30 0
    endloop
  endfacet
  facet normal -1 -0 0
    outer loop
      vertex 40 30 3
      vertex 40 0 0
      vertex 40 0 3
    endloop
  endfacet
  facet normal -0 0 1
    outer loop
      vertex 56.4271 7.76336 3
      vertex 75.5 0 3
      vertex 75.5 30 3
    endloop
  endfacet
  facet normal 0 0 1
    outer loop
      vertex 75.5 0 3
      vertex 56.4271 7.76336 3
      vertex 57 6 3
    endloop
  endfacet
  facet normal 0 0 1
    outer loop
      vertex 75.5 30 3
      vertex 54.9271 8.85317 3
      vertex 56.4271 7.76336 3
    endloop
  endfacet
  facet normal -0 0 1
    outer loop
      vertex 40 30 3
      vertex 54.9271 8.85317 3
      vertex 75.5 30 3
    endloop
  endfacet
  facet normal 0 0 1
    outer loop
      vertex 54.9271 8.85317 3
      vertex 40 30 3
      vertex 53.0729 8.85317 3
    endloop
  endfacet
  facet normal 0 0 1
    outer loop
      vertex 51.5729 7.76336 3
      vertex 49 6 3
      vertex 51 6 3
    endloop
  endfacet
  facet normal 0 -0 1
    outer loop
      vertex 46.9271 8.85317 3
      vertex 53.0729 8.85317 3
      vertex 40 30 3
    endloop
  endfacet
  facet normal 0 0 1
    outer loop
      vertex 51.5729 7.76336 3
      vertex 48.4271 7.76336 3
      vertex 49 6 3
    endloop
  endfacet
  facet normal 0 0 1
    outer loop
      vertex 51.5729 7.76336 3
      vertex 46.9271 8.85317 3
      vertex 48.4271 7.76336 3
    endloop
  endfacet
  facet normal 0 0 1
    outer loop
      vertex 53.0729 8.85317 3
      vertex 46.9271 8.85317 3
      vertex 51.5729 7.76336 3
    endloop
  endfacet
  facet normal 0 0 1
    outer loop
      vertex 43.5729 7.76336 3
      vertex 40 30 3
      vertex 43 6 3
    endloop
  endfacet
  facet normal 0 0 1
    outer loop
      vertex 45.0729 8.85317 3
      vertex 40 30 3
      vertex 43.5729 7.76336 3
    endloop
  endfacet
  facet normal 0 0 1
    outer loop
      vertex 46.9271 8.85317 3
      vertex 40 30 3
      vertex 45.0729 8.85317 3
    endloop
  endfacet
  facet normal -0 0 1
    outer loop
      vertex 56.4271 4.23664 3
      vertex 75.5 0 3
      vertex 57 6 3
    endloop
  endfacet
  facet normal -0 0 1
    outer loop
      vertex 54.9271 3.14683 3
      vertex 75.5 0 3
      vertex 56.4271 4.23664 3
    endloop
  endfacet
  facet normal 0 0 1
    outer loop
      vertex 40 0 3
      vertex 54.9271 3.14683 3
      vertex 53.0729 3.14683 3
    endloop
  endfacet
  facet normal -0 0 1
    outer loop
      vertex 49 6 3
      vertex 51.5729 4.23664 3
      vertex 51 6 3
    endloop
  endfacet
  facet normal 0 0 1
    outer loop
      vertex 48.4271 4.23664 3
      vertex 51.5729 4.23664 3
      vertex 49 6 3
    endloop
  endfacet
  facet normal 0 0 1
    outer loop
      vertex 51.5729 4.23664 3
      vertex 48.4271 4.23664 3
      vertex 53.0729 3.14683 3
    endloop
  endfacet
  facet normal 0 0 1
    outer loop
      vertex 46.9271 3.14683 3
      vertex 53.0729 3.14683 3
      vertex 48.4271 4.23664 3
    endloop
  endfacet
  facet normal 0 0 1
    outer loop
      vertex 40 0 3
      vertex 53.0729 3.14683 3
      vertex 46.9271 3.14683 3
    endloop
  endfacet
  facet normal 0 0 1
    outer loop
      vertex 40 0 3
      vertex 46.9271 3.14683 3
      vertex 45.0729 3.14683 3
    endloop
  endfacet
  facet normal 0 0 1
    outer loop
      vertex 54.9271 3.14683 3
      vertex 40 0 3
      vertex 75.5 0 3
    endloop
  endfacet
  facet normal 0 0 1
    outer loop
      vertex 43.5729 4.23664 3
      vertex 40 0 3
      vertex 45.0729 3.14683 3
    endloop
  endfacet
  facet normal 0 0 1
    outer loop
      vertex 43 6 3
      vertex 40 0 3
      vertex 43.5729 4.23664 3
    endloop
  endfacet
  facet normal 0 0 1
    outer loop
      vertex 40 0 3
      vertex 43 6 3
      vertex 40 30 3
    endloop
  endfacet
  facet normal 1 -0 0
    outer loop
      vertex 75.5 0 3
      vertex 75.5 30 0
      vertex 75.5 30 3
    endloop
  endfacet
  facet normal 1 0 0
    outer loop
      vertex 75.5 30 0
      vertex 75.5 0 3
      vertex 75.5 0 0
    endloop
  endfacet
  facet normal 0 1 -0
    outer loop
      vertex 75.5 30 0
      vertex 40 30 3
      vertex 75.5 30 3
    endloop
  endfacet
  facet normal 0 1 0
    outer loop
      vertex 40 30 3
      vertex 75.5 30 0
      vertex 40 30 0
    endloop
  endfacet
  facet normal 0 0 -1
    outer loop
      vertex 40 0 0
      vertex 75.5 30 0
      vertex 75.5 0 0
    endloop
  endfacet
  facet normal -0 0 -1
    outer loop
      vertex 75.5 30 0
      vertex 40 0 0
      vertex 40 30 0
    endloop
  endfacet
  facet normal 0 -1 0
    outer loop
      vertex 40 0 0
      vertex 75.5 0 3
      vertex 40 0 3
    endloop
  endfacet
  facet normal 0 -1 -0
    outer loop
      vertex 75.5 0 3
      vertex 40 0 0
      vertex 75.5 0 0
    endloop
  endfacet
  facet normal -0.951057 -0.309017 0
    outer loop
      vertex 49 6 2
      vertex 48.4271 7.76336 3
      vertex 48.4271 7.76336 2
    endloop
  endfacet
  facet normal -0.951057 -0.309017 0
    outer loop
      vertex 48.4271 7.76336 3
      vertex 49 6 2
      vertex 49 6 3
    endloop
  endfacet
  facet normal 0.951057 0.309017 0
    outer loop
      vertex 43.5729 4.23664 3
      vertex 43 6 2
      vertex 43 6 3
    endloop
  endfacet
  facet normal 0.951057 0.309017 0
    outer loop
      vertex 43 6 2
      vertex 43.5729 4.23664 3
      vertex 43.5729 4.23664 2
    endloop
  endfacet
  facet normal 0 -1 0
    outer loop
      vertex 45.0729 8.85317 2
      vertex 46.9271 8.85317 3
      vertex 45.0729 8.85317 3
    endloop
  endfacet
  facet normal 0 -1 -0
    outer loop
      vertex 46.9271 8.85317 3
      vertex 45.0729 8.85317 2
      vertex 46.9271 8.85317 2
    endloop
  endfacet
  facet normal -0.587785 -0.809017 0
    outer loop
      vertex 46.9271 8.85317 2
      vertex 48.4271 7.76336 3
      vertex 46.9271 8.85317 3
    endloop
  endfacet
  facet normal -0.587785 -0.809017 -0
    outer loop
      vertex 48.4271 7.76336 3
      vertex 46.9271 8.85317 2
      vertex 48.4271 7.76336 2
    endloop
  endfacet
  facet normal 0.587785 -0.809017 0
    outer loop
      vertex 43.5729 7.76336 2
      vertex 45.0729 8.85317 3
      vertex 43.5729 7.76336 3
    endloop
  endfacet
  facet normal 0.587785 -0.809017 0
    outer loop
      vertex 45.0729 8.85317 3
      vertex 43.5729 7.76336 2
      vertex 45.0729 8.85317 2
    endloop
  endfacet
  facet normal -0.587785 0.809017 0
    outer loop
      vertex 48.4271 4.23664 2
      vertex 46.9271 3.14683 3
      vertex 48.4271 4.23664 3
    endloop
  endfacet
  facet normal -0.587785 0.809017 0
    outer loop
      vertex 46.9271 3.14683 3
      vertex 48.4271 4.23664 2
      vertex 46.9271 3.14683 2
    endloop
  endfacet
  facet normal 0.587785 0.809017 -0
    outer loop
      vertex 45.0729 3.14683 2
      vertex 43.5729 4.23664 3
      vertex 45.0729 3.14683 3
    endloop
  endfacet
  facet normal 0.587785 0.809017 0
    outer loop
      vertex 43.5729 4.23664 3
      vertex 45.0729 3.14683 2
      vertex 43.5729 4.23664 2
    endloop
  endfacet
  facet normal 0 0 1
    outer loop
      vertex 48.4271 7.76336 2
      vertex 48.4271 4.23664 2
      vertex 49 6 2
    endloop
  endfacet
  facet normal 0 0 1
    outer loop
      vertex 46.9271 8.85317 2
      vertex 48.4271 4.23664 2
      vertex 48.4271 7.76336 2
    endloop
  endfacet
  facet normal 0 0 1
    outer loop
      vertex 46.9271 8.85317 2
      vertex 46.9271 3.14683 2
      vertex 48.4271 4.23664 2
    endloop
  endfacet
  facet normal -0 0 1
    outer loop
      vertex 45.0729 8.85317 2
      vertex 46.9271 3.14683 2
      vertex 46.9271 8.85317 2
    endloop
  endfacet
  facet normal 0 0 1
    outer loop
      vertex 45.0729 8.85317 2
      vertex 45.0729 3.14683 2
      vertex 46.9271 3.14683 2
    endloop
  endfacet
  facet normal -0 0 1
    outer loop
      vertex 43.5729 7.76336 2
      vertex 45.0729 3.14683 2
      vertex 45.0729 8.85317 2
    endloop
  endfacet
  facet normal 0 0 1
    outer loop
      vertex 43.5729 7.76336 2
      vertex 43.5729 4.23664 2
      vertex 45.0729 3.14683 2
    endloop
  endfacet
  facet normal 0 -0 1
    outer loop
      vertex 43.5729 4.23664 2
      vertex 43.5729 7.76336 2
      vertex 43 6 2
    endloop
  endfacet
  facet normal 0.951057 -0.309017 0
    outer loop
      vertex 43 6 3
      vertex 43.5729 7.76336 2
      vertex 43.5729 7.76336 3
    endloop
  endfacet
  facet normal 0.951057 -0.309017 0
    outer loop
      vertex 43.5729 7.76336 2
      vertex 43 6 3
      vertex 43 6 2
    endloop
  endfacet
  facet normal -0.951057 0.309017 0
    outer loop
      vertex 48.4271 4.23664 2
      vertex 49 6 3
      vertex 49 6 2
    endloop
  endfacet
  facet normal -0.951057 0.309017 0
    outer loop
      vertex 49 6 3
      vertex 48.4271 4.23664 2
      vertex 48.4271 4.23664 3
    endloop
  endfacet
  facet normal 0 1 -0
    outer loop
      vertex 46.9271 3.14683 2
      vertex 45.0729 3.14683 3
      vertex 46.9271 3.14683 3
    endloop
  endfacet
  facet normal 0 1 0
    outer loop
      vertex 45.0729 3.14683 3
      vertex 46.9271 3.14683 2
      vertex 45.0729 3.14683 2
    endloop
  endfacet
  facet normal -0.951057 -0.309017 0
    outer loop
      vertex 57 6 2
      vertex 56.4271 7.76336 3
      vertex 56.4271 7.76336 2
    endloop
  endfacet
  facet normal -0.951057 -0.309017 0
    outer loop
      vertex 56.4271 7.76336 3
      vertex 57 6 2
      vertex 57 6 3
    endloop
  endfacet
  facet normal 0.951057 0.309017 0
    outer loop
      vertex 51.5729 4.23664 3
      vertex 51 6 2
      vertex 51 6 3
    endloop
  endfacet
  facet normal 0.951057 0.309017 0
    outer loop
      vertex 51 6 2
      vertex 51.5729 4.23664 3
      vertex 51.5729 4.23664 2
    endloop
  endfacet
  facet normal 0 -1 0
    outer loop
      vertex 53.0729 8.85317 2
      vertex 54.9271 8.85317 3
      vertex 53.0729 8.85317 3
    endloop
  endfacet
  facet normal 0 -1 -0
    outer loop
      vertex 54.9271 8.85317 3
      vertex 53.0729 8.85317 2
      vertex 54.9271 8.85317 2
    endloop
  endfacet
  facet normal -0.587785 -0.809017 0
    outer loop
      vertex 54.9271 8.85317 2
      vertex 56.4271 7.76336 3
      vertex 54.9271 8.85317 3
    endloop
  endfacet
  facet normal -0.587785 -0.809017 -0
    outer loop
      vertex 56.4271 7.76336 3
      vertex 54.9271 8.85317 2
      vertex 56.4271 7.76336 2
    endloop
  endfacet
  facet normal 0.587785 -0.809017 0
    outer loop
      vertex 51.5729 7.76336 2
      vertex 53.0729 8.85317 3
      vertex 51.5729 7.76336 3
    endloop
  endfacet
  facet normal 0.587785 -0.809017 0
    outer loop
      vertex 53.0729 8.85317 3
      vertex 51.5729 7.76336 2
      vertex 53.0729 8.85317 2
    endloop
  endfacet
  facet normal -0.587785 0.809017 0
    outer loop
      vertex 56.4271 4.23664 2
      vertex 54.9271 3.14683 3
      vertex 56.4271 4.23664 3
    endloop
  endfacet
  facet normal -0.587785 0.809017 0
    outer loop
      vertex 54.9271 3.14683 3
      vertex 56.4271 4.23664 2
      vertex 54.9271 3.14683 2
    endloop
  endfacet
  facet normal 0.587785 0.809017 -0
    outer loop
      vertex 53.0729 3.14683 2
      vertex 51.5729 4.23664 3
      vertex 53.0729 3.14683 3
    endloop
  endfacet
  facet normal 0.587785 0.809017 0
    outer loop
      vertex 51.5729 4.23664 3
      vertex 53.0729 3.14683 2
      vertex 51.5729 4.23664 2
    endloop
  endfacet
  facet normal 0 0 1
    outer loop
      vertex 56.4271 7.76336 2
      vertex 56.4271 4.23664 2
      vertex 57 6 2
    endloop
  endfacet
  facet normal 0 0 1
    outer loop
      vertex 54.9271 8.85317 2
      vertex 56.4271 4.23664 2
      vertex 56.4271 7.76336 2
    endloop
  endfacet
  facet normal 0 0 1
    outer loop
      vertex 54.9271 8.85317 2
      vertex 54.9271 3.14683 2
      vertex 56.4271 4.23664 2
    endloop
  endfacet
  facet normal -0 0 1
    outer loop
      vertex 53.0729 8.85317 2
      vertex 54.9271 3.14683 2
      vertex 54.9271 8.85317 2
    endloop
  endfacet
  facet normal 0 0 1
    outer loop
      vertex 53.0729 8.85317 2
      vertex 53.0729 3.14683 2
      vertex 54.9271 3.14683 2
    endloop
  endfacet
  facet normal -0 0 1
    outer loop
      vertex 51.5729 7.76336 2
      vertex 53.0729 3.14683 2
      vertex 53.0729 8.85317 2
    endloop
  endfacet
  facet normal 0 0 1
    outer loop
      vertex 51.5729 7.76336 2
      vertex 51.5729 4.23664 2
      vertex 53.0729 3.14683 2
    endloop
  endfacet
  facet normal 0 -0 1
    outer loop
      vertex 51.5729 4.23664 2
      vertex 51.5729 7.76336 2
      vertex 51 6 2
    endloop
  endfacet
  facet normal 0.951057 -0.309017 0
    outer loop
      vertex 51 6 3
      vertex 51.5729 7.76336 2
      vertex 51.5729 7.76336 3
    endloop
  endfacet
  facet normal 0.951057 -0.309017 0
    outer loop
      vertex 51.5729 7.76336 2
      vertex 51 6 3
      vertex 51 6 2
    endloop
  endfacet
  facet normal -0.951057 0.309017 0
    outer loop
      vertex 56.4271 4.23664 2
      vertex 57 6 3
      vertex 57 6 2
    endloop
  endfacet
  facet normal -0.951057 0.309017 0
    outer loop
      vertex 57 6 3
      vertex 56.4271 4.23664 2
      vertex 56.4271 4.23664 3
    endloop
  endfacet
  facet normal 0 1 -0
    outer loop
      vertex 54.9271 3.14683 2
      vertex 53.0729 3.14683 3
      vertex 54.9271 3.14683 3
    endloop
  endfacet
  facet normal 0 1 0
    outer loop
      vertex 53.0729 3.14683 3
      vertex 54.9271 3.14683 2
      vertex 53.0729 3.14683 2
    endloop
  endfacet
  facet normal 0 -1 0
    outer loop
      vertex 45 33 0
      vertex 75 33 3
      vertex 45 33 3
    endloop
  endfacet
  facet normal 0 -1 -0
    outer loop
      vertex 75 33 3
      vertex 45 33 0
      vertex 75 33 0
    endloop
  endfacet
  facet normal -0 0 1
    outer loop
      vertex 70.7634 44.5729 3
      vertex 71.8532 39.9271 3
      vertex 71.8532 46.0729 3
    endloop
  endfacet
  facet normal 0 0 1
    outer loop
      vertex 70.7634 44.5729 3
      vertex 70.7634 41.4271 3
      vertex 71.8532 39.9271 3
    endloop
  endfacet
  facet normal -0 0 1
    outer loop
      vertex 69 44 3
      vertex 70.7634 41.4271 3
      vertex 70.7634 44.5729 3
    endloop
  endfacet
  facet normal 0 0 1
    outer loop
      vertex 69 44 3
      vertex 69 42 3
      vertex 70.7634 41.4271 3
    endloop
  endfacet
  facet normal 0 0 1
    outer loop
      vertex 67.2366 44.5729 3
      vertex 69 42 3
      vertex 69 44 3
    endloop
  endfacet
  facet normal 0 0 1
    outer loop
      vertex 67.2366 44.5729 3
      vertex 67.2366 41.4271 3
      vertex 69 42 3
    endloop
  endfacet
  facet normal 0 0 1
    outer loop
      vertex 66.1468 46.0729 3
      vertex 67.2366 41.4271 3
      vertex 67.2366 44.5729 3
    endloop
  endfacet
  facet normal 0 0 1
    outer loop
      vertex 67.2366 41.4271 3
      vertex 66.1468 46.0729 3
      vertex 66.1468 39.9271 3
    endloop
  endfacet
  facet normal -0 0 1
    outer loop
      vertex 70.7634 52.5729 3
      vertex 71.8532 47.9271 3
      vertex 71.8532 54.0729 3
    endloop
  endfacet
  facet normal 0 0 1
    outer loop
      vertex 70.7634 52.5729 3
      vertex 70.7634 49.4271 3
      vertex 71.8532 47.9271 3
    endloop
  endfacet
  facet normal -0 0 1
    outer loop
      vertex 69 52 3
      vertex 70.7634 49.4271 3
      vertex 70.7634 52.5729 3
    endloop
  endfacet
  facet normal 0 0 1
    outer loop
      vertex 69 52 3
      vertex 69 50 3
      vertex 70.7634 49.4271 3
    endloop
  endfacet
  facet normal 0 0 1
    outer loop
      vertex 67.2366 52.5729 3
      vertex 69 50 3
      vertex 69 52 3
    endloop
  endfacet
  facet normal 0 0 1
    outer loop
      vertex 67.2366 52.5729 3
      vertex 67.2366 49.4271 3
      vertex 69 50 3
    endloop
  endfacet
  facet normal 0 0 1
    outer loop
      vertex 66.1468 54.0729 3
      vertex 67.2366 49.4271 3
      vertex 67.2366 52.5729 3
    endloop
  endfacet
  facet normal 0 0 1
    outer loop
      vertex 67.2366 49.4271 3
      vertex 66.1468 54.0729 3
      vertex 66.1468 47.9271 3
    endloop
  endfacet
  facet normal 0 0 1
    outer loop
      vertex 71.8532 54.0729 3
      vertex 75 68 3
      vertex 71.8532 55.9271 3
    endloop
  endfacet
  facet normal 0 0 1
    outer loop
      vertex 75 68 3
      vertex 70.7634 57.4271 3
      vertex 71.8532 55.9271 3
    endloop
  endfacet
  facet normal 0 0 1
    outer loop
      vertex 75 68 3
      vertex 69 58 3
      vertex 70.7634 57.4271 3
    endloop
  endfacet
  facet normal 0 0 1
    outer loop
      vertex 75 68 3
      vertex 67.2366 57.4271 3
      vertex 69 58 3
    endloop
  endfacet
  facet normal 0 0 1
    outer loop
      vertex 45 68 3
      vertex 66.1468 54.0729 3
      vertex 66.1468 55.9271 3
    endloop
  endfacet
  facet normal 0 0 1
    outer loop
      vertex 66.1468 54.0729 3
      vertex 45 68 3
      vertex 66.1468 47.9271 3
    endloop
  endfacet
  facet normal 0 0 1
    outer loop
      vertex 45 33 3
      vertex 66.1468 47.9271 3
      vertex 45 68 3
    endloop
  endfacet
  facet normal 0 0 1
    outer loop
      vertex 66.1468 46.0729 3
      vertex 45 33 3
      vertex 66.1468 39.9271 3
    endloop
  endfacet
  facet normal 0 0 1
    outer loop
      vertex 66.1468 47.9271 3
      vertex 45 33 3
      vertex 66.1468 46.0729 3
    endloop
  endfacet
  facet normal 0 0 1
    outer loop
      vertex 67.2366 57.4271 3
      vertex 45 68 3
      vertex 66.1468 55.9271 3
    endloop
  endfacet
  facet normal -0 0 1
    outer loop
      vertex 45 68 3
      vertex 67.2366 57.4271 3
      vertex 75 68 3
    endloop
  endfacet
  facet normal 0 0 1
    outer loop
      vertex 71.8532 47.9271 3
      vertex 75 68 3
      vertex 71.8532 54.0729 3
    endloop
  endfacet
  facet normal 0 0 1
    outer loop
      vertex 75 68 3
      vertex 71.8532 47.9271 3
      vertex 75 33 3
    endloop
  endfacet
  facet normal -0 0 1
    outer loop
      vertex 71.8532 46.0729 3
      vertex 75 33 3
      vertex 71.8532 47.9271 3
    endloop
  endfacet
  facet normal -0 0 1
    outer loop
      vertex 71.8532 39.9271 3
      vertex 75 33 3
      vertex 71.8532 46.0729 3
    endloop
  endfacet
  facet normal -0 0 1
    outer loop
      vertex 71.8532 38.0729 3
      vertex 75 33 3
      vertex 71.8532 39.9271 3
    endloop
  endfacet
  facet normal -0 0 1
    outer loop
      vertex 70.7634 36.5729 3
      vertex 75 33 3
      vertex 71.8532 38.0729 3
    endloop
  endfacet
  facet normal -0 0 1
    outer loop
      vertex 69 36 3
      vertex 75 33 3
      vertex 70.7634 36.5729 3
    endloop
  endfacet
  facet normal 0 0 1
    outer loop
      vertex 67.2366 36.5729 3
      vertex 75 33 3
      vertex 69 36 3
    endloop
  endfacet
  facet normal 0 0 1
    outer loop
      vertex 67.2366 36.5729 3
      vertex 45 33 3
      vertex 75 33 3
    endloop
  endfacet
  facet normal 0 0 1
    outer loop
      vertex 66.1468 38.0729 3
      vertex 45 33 3
      vertex 67.2366 36.5729 3
    endloop
  endfacet
  facet normal 0 0 1
    outer loop
      vertex 66.1468 39.9271 3
      vertex 45 33 3
      vertex 66.1468 38.0729 3
    endloop
  endfacet
  facet normal 0 1 -0
    outer loop
      vertex 75 68 0
      vertex 45 68 3
      vertex 75 68 3
    endloop
  endfacet
  facet normal 0 1 0
    outer loop
      vertex 45 68 3
      vertex 75 68 0
      vertex 45 68 0
    endloop
  endfacet
  facet normal -1 0 0
    outer loop
      vertex 45 33 0
      vertex 45 68 3
      vertex 45 68 0
    endloop
  endfacet
  facet normal -1 -0 0
    outer loop
      vertex 45 68 3
      vertex 45 33 0
      vertex 45 33 3
    endloop
  endfacet
  facet normal 0 0 -1
    outer loop
      vertex 45 33 0
      vertex 75 68 0
      vertex 75 33 0
    endloop
  endfacet
  facet normal -0 0 -1
    outer loop
      vertex 75 68 0
      vertex 45 33 0
      vertex 45 68 0
    endloop
  endfacet
  facet normal 1 -0 0
    outer loop
      vertex 75 33 3
      vertex 75 68 0
      vertex 75 68 3
    endloop
  endfacet
  facet normal 1 0 0
    outer loop
      vertex 75 68 0
      vertex 75 33 3
      vertex 75 33 0
    endloop
  endfacet
  facet normal 0.309017 -0.951056 0
    outer loop
      vertex 67.2366 41.4271 2
      vertex 69 42 3
      vertex 67.2366 41.4271 3
    endloop
  endfacet
  facet normal 0.309017 -0.951056 0
    outer loop
      vertex 69 42 3
      vertex 67.2366 41.4271 2
      vertex 69 42 2
    endloop
  endfacet
  facet normal -0.309016 0.951057 0
    outer loop
      vertex 70.7634 36.5729 2
      vertex 69 36 3
      vertex 70.7634 36.5729 3
    endloop
  endfacet
  facet normal -0.309016 0.951057 0
    outer loop
      vertex 69 36 3
      vertex 70.7634 36.5729 2
      vertex 69 36 2
    endloop
  endfacet
  facet normal 1 -0 0
    outer loop
      vertex 66.1468 38.0729 3
      vertex 66.1468 39.9271 2
      vertex 66.1468 39.9271 3
    endloop
  endfacet
  facet normal 1 0 0
    outer loop
      vertex 66.1468 39.9271 2
      vertex 66.1468 38.0729 3
      vertex 66.1468 38.0729 2
    endloop
  endfacet
  facet normal 0.809015 -0.587788 0
    outer loop
      vertex 66.1468 39.9271 3
      vertex 67.2366 41.4271 2
      vertex 67.2366 41.4271 3
    endloop
  endfacet
  facet normal 0.809015 -0.587788 0
    outer loop
      vertex 67.2366 41.4271 2
      vertex 66.1468 39.9271 3
      vertex 66.1468 39.9271 2
    endloop
  endfacet
  facet normal 0.809015 0.587788 0
    outer loop
      vertex 67.2366 36.5729 3
      vertex 66.1468 38.0729 2
      vertex 66.1468 38.0729 3
    endloop
  endfacet
  facet normal 0.809015 0.587788 0
    outer loop
      vertex 66.1468 38.0729 2
      vertex 67.2366 36.5729 3
      vertex 67.2366 36.5729 2
    endloop
  endfacet
  facet normal -0.809017 -0.587785 0
    outer loop
      vertex 71.8532 39.9271 2
      vertex 70.7634 41.4271 3
      vertex 70.7634 41.4271 2
    endloop
  endfacet
  facet normal -0.809017 -0.587785 0
    outer loop
      vertex 70.7634 41.4271 3
      vertex 71.8532 39.9271 2
      vertex 71.8532 39.9271 3
    endloop
  endfacet
  facet normal -0.809017 0.587785 0
    outer loop
      vertex 70.7634 36.5729 2
      vertex 71.8532 38.0729 3
      vertex 71.8532 38.0729 2
    endloop
  endfacet
  facet normal -0.809017 0.587785 0
    outer loop
      vertex 71.8532 38.0729 3
      vertex 70.7634 36.5729 2
      vertex 70.7634 36.5729 3
    endloop
  endfacet
  facet normal 0 0 1
    outer loop
      vertex 70.7634 41.4271 2
      vertex 71.8532 38.0729 2
      vertex 71.8532 39.9271 2
    endloop
  endfacet
  facet normal 0 0 1
    outer loop
      vertex 70.7634 41.4271 2
      vertex 70.7634 36.5729 2
      vertex 71.8532 38.0729 2
    endloop
  endfacet
  facet normal 0 0 1
    outer loop
      vertex 69 42 2
      vertex 70.7634 36.5729 2
      vertex 70.7634 41.4271 2
    endloop
  endfacet
  facet normal 0 0 1
    outer loop
      vertex 69 42 2
      vertex 69 36 2
      vertex 70.7634 36.5729 2
    endloop
  endfacet
  facet normal -0 0 1
    outer loop
      vertex 67.2366 41.4271 2
      vertex 69 36 2
      vertex 69 42 2
    endloop
  endfacet
  facet normal 0 0 1
    outer loop
      vertex 67.2366 41.4271 2
      vertex 67.2366 36.5729 2
      vertex 69 36 2
    endloop
  endfacet
  facet normal -0 0 1
    outer loop
      vertex 66.1468 39.9271 2
      vertex 67.2366 36.5729 2
      vertex 67.2366 41.4271 2
    endloop
  endfacet
  facet normal 0 0 1
    outer loop
      vertex 67.2366 36.5729 2
      vertex 66.1468 39.9271 2
      vertex 66.1468 38.0729 2
    endloop
  endfacet
  facet normal 0.309017 0.951056 -0
    outer loop
      vertex 69 36 2
      vertex 67.2366 36.5729 3
      vertex 69 36 3
    endloop
  endfacet
  facet normal 0.309017 0.951056 0
    outer loop
      vertex 67.2366 36.5729 3
      vertex 69 36 2
      vertex 67.2366 36.5729 2
    endloop
  endfacet
  facet normal -1 0 0
    outer loop
      vertex 71.8532 38.0729 2
      vertex 71.8532 39.9271 3
      vertex 71.8532 39.9271 2
    endloop
  endfacet
  facet normal -1 -0 0
    outer loop
      vertex 71.8532 39.9271 3
      vertex 71.8532 38.0729 2
      vertex 71.8532 38.0729 3
    endloop
  endfacet
  facet normal -0.309016 -0.951057 0
    outer loop
      vertex 69 42 2
      vertex 70.7634 41.4271 3
      vertex 69 42 3
    endloop
  endfacet
  facet normal -0.309016 -0.951057 -0
    outer loop
      vertex 70.7634 41.4271 3
      vertex 69 42 2
      vertex 70.7634 41.4271 2
    endloop
  endfacet
  facet normal 0.309017 -0.951056 0
    outer loop
      vertex 67.2366 49.4271 2
      vertex 69 50 3
      vertex 67.2366 49.4271 3
    endloop
  endfacet
  facet normal 0.309017 -0.951056 0
    outer loop
      vertex 69 50 3
      vertex 67.2366 49.4271 2
      vertex 69 50 2
    endloop
  endfacet
  facet normal -0.309016 0.951057 0
    outer loop
      vertex 70.7634 44.5729 2
      vertex 69 44 3
      vertex 70.7634 44.5729 3
    endloop
  endfacet
  facet normal -0.309016 0.951057 0
    outer loop
      vertex 69 44 3
      vertex 70.7634 44.5729 2
      vertex 69 44 2
    endloop
  endfacet
  facet normal 1 -0 0
    outer loop
      vertex 66.1468 46.0729 3
      vertex 66.1468 47.9271 2
      vertex 66.1468 47.9271 3
    endloop
  endfacet
  facet normal 1 0 0
    outer loop
      vertex 66.1468 47.9271 2
      vertex 66.1468 46.0729 3
      vertex 66.1468 46.0729 2
    endloop
  endfacet
  facet normal 0.809015 -0.587788 0
    outer loop
      vertex 66.1468 47.9271 3
      vertex 67.2366 49.4271 2
      vertex 67.2366 49.4271 3
    endloop
  endfacet
  facet normal 0.809015 -0.587788 0
    outer loop
      vertex 67.2366 49.4271 2
      vertex 66.1468 47.9271 3
      vertex 66.1468 47.9271 2
    endloop
  endfacet
  facet normal 0.809015 0.587788 0
    outer loop
      vertex 67.2366 44.5729 3
      vertex 66.1468 46.0729 2
      vertex 66.1468 46.0729 3
    endloop
  endfacet
  facet normal 0.809015 0.587788 0
    outer loop
      vertex 66.1468 46.0729 2
      vertex 67.2366 44.5729 3
      vertex 67.2366 44.5729 2
    endloop
  endfacet
  facet normal -0.809017 -0.587785 0
    outer loop
      vertex 71.8532 47.9271 2
      vertex 70.7634 49.4271 3
      vertex 70.7634 49.4271 2
    endloop
  endfacet
  facet normal -0.809017 -0.587785 0
    outer loop
      vertex 70.7634 49.4271 3
      vertex 71.8532 47.9271 2
      vertex 71.8532 47.9271 3
    endloop
  endfacet
  facet normal -0.809017 0.587785 0
    outer loop
      vertex 70.7634 44.5729 2
      vertex 71.8532 46.0729 3
      vertex 71.8532 46.0729 2
    endloop
  endfacet
  facet normal -0.809017 0.587785 0
    outer loop
      vertex 71.8532 46.0729 3
      vertex 70.7634 44.5729 2
      vertex 70.7634 44.5729 3
    endloop
  endfacet
  facet normal 0 0 1
    outer loop
      vertex 70.7634 49.4271 2
      vertex 71.8532 46.0729 2
      vertex 71.8532 47.9271 2
    endloop
  endfacet
  facet normal 0 0 1
    outer loop
      vertex 70.7634 49.4271 2
      vertex 70.7634 44.5729 2
      vertex 71.8532 46.0729 2
    endloop
  endfacet
  facet normal 0 0 1
    outer loop
      vertex 69 50 2
      vertex 70.7634 44.5729 2
      vertex 70.7634 49.4271 2
    endloop
  endfacet
  facet normal 0 0 1
    outer loop
      vertex 69 50 2
      vertex 69 44 2
      vertex 70.7634 44.5729 2
    endloop
  endfacet
  facet normal -0 0 1
    outer loop
      vertex 67.2366 49.4271 2
      vertex 69 44 2
      vertex 69 50 2
    endloop
  endfacet
  facet normal 0 0 1
    outer loop
      vertex 67.2366 49.4271 2
      vertex 67.2366 44.5729 2
      vertex 69 44 2
    endloop
  endfacet
  facet normal -0 0 1
    outer loop
      vertex 66.1468 47.9271 2
      vertex 67.2366 44.5729 2
      vertex 67.2366 49.4271 2
    endloop
  endfacet
  facet normal 0 0 1
    outer loop
      vertex 67.2366 44.5729 2
      vertex 66.1468 47.9271 2
      vertex 66.1468 46.0729 2
    endloop
  endfacet
  facet normal 0.309017 0.951056 -0
    outer loop
      vertex 69 44 2
      vertex 67.2366 44.5729 3
      vertex 69 44 3
    endloop
  endfacet
  facet normal 0.309017 0.951056 0
    outer loop
      vertex 67.2366 44.5729 3
      vertex 69 44 2
      vertex 67.2366 44.5729 2
    endloop
  endfacet
  facet normal -0.309016 -0.951057 0
    outer loop
      vertex 69 50 2
      vertex 70.7634 49.4271 3
      vertex 69 50 3
    endloop
  endfacet
  facet normal -0.309016 -0.951057 -0
    outer loop
      vertex 70.7634 49.4271 3
      vertex 69 50 2
      vertex 70.7634 49.4271 2
    endloop
  endfacet
  facet normal -1 0 0
    outer loop
      vertex 71.8532 46.0729 2
      vertex 71.8532 47.9271 3
      vertex 71.8532 47.9271 2
    endloop
  endfacet
  facet normal -1 -0 0
    outer loop
      vertex 71.8532 47.9271 3
      vertex 71.8532 46.0729 2
      vertex 71.8532 46.0729 3
    endloop
  endfacet
  facet normal 0.309017 -0.951056 0
    outer loop
      vertex 67.2366 57.4271 2
      vertex 69 58 3
      vertex 67.2366 57.4271 3
    endloop
  endfacet
  facet normal 0.309017 -0.951056 0
    outer loop
      vertex 69 58 3
      vertex 67.2366 57.4271 2
      vertex 69 58 2
    endloop
  endfacet
  facet normal -0.309016 0.951057 0
    outer loop
      vertex 70.7634 52.5729 2
      vertex 69 52 3
      vertex 70.7634 52.5729 3
    endloop
  endfacet
  facet normal -0.309016 0.951057 0
    outer loop
      vertex 69 52 3
      vertex 70.7634 52.5729 2
      vertex 69 52 2
    endloop
  endfacet
  facet normal 1 -0 0
    outer loop
      vertex 66.1468 54.0729 3
      vertex 66.1468 55.9271 2
      vertex 66.1468 55.9271 3
    endloop
  endfacet
  facet normal 1 0 0
    outer loop
      vertex 66.1468 55.9271 2
      vertex 66.1468 54.0729 3
      vertex 66.1468 54.0729 2
    endloop
  endfacet
  facet normal 0.809015 -0.587788 0
    outer loop
      vertex 66.1468 55.9271 3
      vertex 67.2366 57.4271 2
      vertex 67.2366 57.4271 3
    endloop
  endfacet
  facet normal 0.809015 -0.587788 0
    outer loop
      vertex 67.2366 57.4271 2
      vertex 66.1468 55.9271 3
      vertex 66.1468 55.9271 2
    endloop
  endfacet
  facet normal 0.809015 0.587788 0
    outer loop
      vertex 67.2366 52.5729 3
      vertex 66.1468 54.0729 2
      vertex 66.1468 54.0729 3
    endloop
  endfacet
  facet normal 0.809015 0.587788 0
    outer loop
      vertex 66.1468 54.0729 2
      vertex 67.2366 52.5729 3
      vertex 67.2366 52.5729 2
    endloop
  endfacet
  facet normal -0.809017 -0.587785 0
    outer loop
      vertex 71.8532 55.9271 2
      vertex 70.7634 57.4271 3
      vertex 70.7634 57.4271 2
    endloop
  endfacet
  facet normal -0.809017 -0.587785 0
    outer loop
      vertex 70.7634 57.4271 3
      vertex 71.8532 55.9271 2
      vertex 71.8532 55.9271 3
    endloop
  endfacet
  facet normal -0.809017 0.587785 0
    outer loop
      vertex 70.7634 52.5729 2
      vertex 71.8532 54.0729 3
      vertex 71.8532 54.0729 2
    endloop
  endfacet
  facet normal -0.809017 0.587785 0
    outer loop
      vertex 71.8532 54.0729 3
      vertex 70.7634 52.5729 2
      vertex 70.7634 52.5729 3
    endloop
  endfacet
  facet normal 0 0 1
    outer loop
      vertex 70.7634 57.4271 2
      vertex 71.8532 54.0729 2
      vertex 71.8532 55.9271 2
    endloop
  endfacet
  facet normal 0 0 1
    outer loop
      vertex 70.7634 57.4271 2
      vertex 70.7634 52.5729 2
      vertex 71.8532 54.0729 2
    endloop
  endfacet
  facet normal 0 0 1
    outer loop
      vertex 69 58 2
      vertex 70.7634 52.5729 2
      vertex 70.7634 57.4271 2
    endloop
  endfacet
  facet normal 0 0 1
    outer loop
      vertex 69 58 2
      vertex 69 52 2
      vertex 70.7634 52.5729 2
    endloop
  endfacet
  facet normal -0 0 1
    outer loop
      vertex 67.2366 57.4271 2
      vertex 69 52 2
      vertex 69 58 2
    endloop
  endfacet
  facet normal 0 0 1
    outer loop
      vertex 67.2366 57.4271 2
      vertex 67.2366 52.5729 2
      vertex 69 52 2
    endloop
  endfacet
  facet normal -0 0 1
    outer loop
      vertex 66.1468 55.9271 2
      vertex 67.2366 52.5729 2
      vertex 67.2366 57.4271 2
    endloop
  endfacet
  facet normal 0 0 1
    outer loop
      vertex 67.2366 52.5729 2
      vertex 66.1468 55.9271 2
      vertex 66.1468 54.0729 2
    endloop
  endfacet
  facet normal 0.309017 0.951056 -0
    outer loop
      vertex 69 52 2
      vertex 67.2366 52.5729 3
      vertex 69 52 3
    endloop
  endfacet
  facet normal 0.309017 0.951056 0
    outer loop
      vertex 67.2366 52.5729 3
      vertex 69 52 2
      vertex 67.2366 52.5729 2
    endloop
  endfacet
  facet normal -0.309016 -0.951057 0
    outer loop
      vertex 69 58 2
      vertex 70.7634 57.4271 3
      vertex 69 58 3
    endloop
  endfacet
  facet normal -0.309016 -0.951057 -0
    outer loop
      vertex 70.7634 57.4271 3
      vertex 69 58 2
      vertex 70.7634 57.4271 2
    endloop
  endfacet
  facet normal -1 0 0
    outer loop
      vertex 71.8532 54.0729 2
      vertex 71.8532 55.9271 3
      vertex 71.8532 55.9271 2
    endloop
  endfacet
  facet normal -1 -0 0
    outer loop
      vertex 71.8532 55.9271 3
      vertex 71.8532 54.0729 2
      vertex 71.8532 54.0729 3
    endloop
  endfacet
  facet normal -1 0 0
    outer loop
      vertex 0 35 6.88338e-15
      vertex 0 66 25
      vertex 0 66 0
    endloop
  endfacet
  facet normal -1 -0 0
    outer loop
      vertex 0 66 25
      vertex 0 35 6.88338e-15
      vertex 0 35 25
    endloop
  endfacet
  facet normal 0 -1 0
    outer loop
      vertex 0 35 25
      vertex 3 35 3
      vertex 3 35 25
    endloop
  endfacet
  facet normal 0 -1 -0
    outer loop
      vertex 3 35 3
      vertex 0 35 6.88338e-15
      vertex 37 35 3
    endloop
  endfacet
  facet normal 0 -1 0
    outer loop
      vertex 0 35 6.88338e-15
      vertex 3 35 3
      vertex 0 35 25
    endloop
  endfacet
  facet normal 0 -1 0
    outer loop
      vertex 37 35 3
      vertex 40 35 25
      vertex 37 35 25
    endloop
  endfacet
  facet normal 0 -1 0
    outer loop
      vertex 37 35 3
      vertex 40 35 6.88338e-15
      vertex 40 35 25
    endloop
  endfacet
  facet normal 0 -1 0
    outer loop
      vertex 40 35 6.88338e-15
      vertex 37 35 3
      vertex 0 35 6.88338e-15
    endloop
  endfacet
  facet normal 1 -0 0
    outer loop
      vertex 40 35 25
      vertex 40 66 0
      vertex 40 66 25
    endloop
  endfacet
  facet normal 1 0 0
    outer loop
      vertex 40 66 0
      vertex 40 35 25
      vertex 40 35 6.88338e-15
    endloop
  endfacet
  facet normal 0 1 0
    outer loop
      vertex 40 66 25
      vertex 37 66 3
      vertex 37 66 25
    endloop
  endfacet
  facet normal 0 1 0
    outer loop
      vertex 37 66 3
      vertex 40 66 0
      vertex 3 66 3
    endloop
  endfacet
  facet normal 0 1 -0
    outer loop
      vertex 40 66 0
      vertex 37 66 3
      vertex 40 66 25
    endloop
  endfacet
  facet normal 0 1 -0
    outer loop
      vertex 3 66 3
      vertex 0 66 25
      vertex 3 66 25
    endloop
  endfacet
  facet normal 0 1 0
    outer loop
      vertex 3 66 3
      vertex 0 66 0
      vertex 0 66 25
    endloop
  endfacet
  facet normal 0 1 0
    outer loop
      vertex 0 66 0
      vertex 3 66 3
      vertex 40 66 0
    endloop
  endfacet
  facet normal 0 -2.22045e-16 -1
    outer loop
      vertex 0 35 6.88338e-15
      vertex 40 66 0
      vertex 40 35 6.88338e-15
    endloop
  endfacet
  facet normal -0 -2.22045e-16 -1
    outer loop
      vertex 40 66 0
      vertex 0 35 6.88338e-15
      vertex 0 66 0
    endloop
  endfacet
  facet normal -0 0 1
    outer loop
      vertex 37 46 25
      vertex 38 44 25
      vertex 38 46 25
    endloop
  endfacet
  facet normal 0 0 1
    outer loop
      vertex 38 44 25
      vertex 37 46 25
      vertex 37 44 25
    endloop
  endfacet
  facet normal -0 0 1
    outer loop
      vertex 37 52.5 25
      vertex 38 50 25
      vertex 38 52.5 25
    endloop
  endfacet
  facet normal 0 0 1
    outer loop
      vertex 38 50 25
      vertex 37 52.5 25
      vertex 37 50 25
    endloop
  endfacet
  facet normal -0 0 1
    outer loop
      vertex 37 58 25
      vertex 38 56 25
      vertex 38 58 25
    endloop
  endfacet
  facet normal 0 0 1
    outer loop
      vertex 38 56 25
      vertex 37 58 25
      vertex 37 56 25
    endloop
  endfacet
  facet normal 0 0 1
    outer loop
      vertex 38 58 25
      vertex 40 66 25
      vertex 38 61 25
    endloop
  endfacet
  facet normal -0 0 1
    outer loop
      vertex 37 66 25
      vertex 38 61 25
      vertex 40 66 25
    endloop
  endfacet
  facet normal 0 0 1
    outer loop
      vertex 38 61 25
      vertex 37 66 25
      vertex 37 61 25
    endloop
  endfacet
  facet normal 0 0 1
    outer loop
      vertex 38 56 25
      vertex 40 66 25
      vertex 38 58 25
    endloop
  endfacet
  facet normal 0 0 1
    outer loop
      vertex 38 52.5 25
      vertex 40 66 25
      vertex 38 56 25
    endloop
  endfacet
  facet normal 0 0 1
    outer loop
      vertex 38 50 25
      vertex 40 66 25
      vertex 38 52.5 25
    endloop
  endfacet
  facet normal 0 0 1
    outer loop
      vertex 40 66 25
      vertex 38 50 25
      vertex 40 35 25
    endloop
  endfacet
  facet normal -0 0 1
    outer loop
      vertex 38 46 25
      vertex 40 35 25
      vertex 38 50 25
    endloop
  endfacet
  facet normal -0 0 1
    outer loop
      vertex 38 44 25
      vertex 40 35 25
      vertex 38 46 25
    endloop
  endfacet
  facet normal -0 0 1
    outer loop
      vertex 38 39.5 25
      vertex 40 35 25
      vertex 38 44 25
    endloop
  endfacet
  facet normal 0 0 1
    outer loop
      vertex 37 35 25
      vertex 38 39.5 25
      vertex 37 39.5 25
    endloop
  endfacet
  facet normal 0 0 1
    outer loop
      vertex 38 39.5 25
      vertex 37 35 25
      vertex 40 35 25
    endloop
  endfacet
  facet normal 0 0 1
    outer loop
      vertex 3 66 25
      vertex 2 61 25
      vertex 3 61 25
    endloop
  endfacet
  facet normal 0 0 1
    outer loop
      vertex 0 66 25
      vertex 2 58 25
      vertex 2 61 25
    endloop
  endfacet
  facet normal 0 0 1
    outer loop
      vertex 2 58 25
      vertex 0 66 25
      vertex 2 56 25
    endloop
  endfacet
  facet normal 0 0 1
    outer loop
      vertex 2 56 25
      vertex 0 66 25
      vertex 2 52.5 25
    endloop
  endfacet
  facet normal 0 0 1
    outer loop
      vertex 2 52.5 25
      vertex 0 66 25
      vertex 2 50 25
    endloop
  endfacet
  facet normal 0 0 1
    outer loop
      vertex 0 35 25
      vertex 2 50 25
      vertex 0 66 25
    endloop
  endfacet
  facet normal 0 0 1
    outer loop
      vertex 2 50 25
      vertex 0 35 25
      vertex 2 46 25
    endloop
  endfacet
  facet normal 0 0 1
    outer loop
      vertex 2 46 25
      vertex 0 35 25
      vertex 2 44 25
    endloop
  endfacet
  facet normal -0 0 1
    outer loop
      vertex 0 66 25
      vertex 2 61 25
      vertex 3 66 25
    endloop
  endfacet
  facet normal -0 0 1
    outer loop
      vertex 2 58 25
      vertex 3 56 25
      vertex 3 58 25
    endloop
  endfacet
  facet normal 0 0 1
    outer loop
      vertex 3 56 25
      vertex 2 58 25
      vertex 2 56 25
    endloop
  endfacet
  facet normal -0 0 1
    outer loop
      vertex 2 52.5 25
      vertex 3 50 25
      vertex 3 52.5 25
    endloop
  endfacet
  facet normal 0 0 1
    outer loop
      vertex 3 50 25
      vertex 2 52.5 25
      vertex 2 50 25
    endloop
  endfacet
  facet normal -0 0 1
    outer loop
      vertex 2 46 25
      vertex 3 44 25
      vertex 3 46 25
    endloop
  endfacet
  facet normal 0 0 1
    outer loop
      vertex 3 44 25
      vertex 2 46 25
      vertex 2 44 25
    endloop
  endfacet
  facet normal -0 0 1
    outer loop
      vertex 2 39.5 25
      vertex 3 35 25
      vertex 3 39.5 25
    endloop
  endfacet
  facet normal 0 0 1
    outer loop
      vertex 2 39.5 25
      vertex 0 35 25
      vertex 3 35 25
    endloop
  endfacet
  facet normal 0 0 1
    outer loop
      vertex 2 44 25
      vertex 0 35 25
      vertex 2 39.5 25
    endloop
  endfacet
  facet normal 1 -0 0
    outer loop
      vertex 3 35 25
      vertex 3 39.5 3
      vertex 3 39.5 25
    endloop
  endfacet
  facet normal 1 0 0
    outer loop
      vertex 3 39.5 3
      vertex 3 35 25
      vertex 3 35 3
    endloop
  endfacet
  facet normal 1 -0 0
    outer loop
      vertex 3 61 25
      vertex 3 66 3
      vertex 3 66 25
    endloop
  endfacet
  facet normal 1 0 0
    outer loop
      vertex 3 66 3
      vertex 3 61 25
      vertex 3 61 3
    endloop
  endfacet
  facet normal 1 -0 0
    outer loop
      vertex 3 56 25
      vertex 3 58 3
      vertex 3 58 25
    endloop
  endfacet
  facet normal 1 0 0
    outer loop
      vertex 3 58 3
      vertex 3 56 25
      vertex 3 56 3
    endloop
  endfacet
  facet normal 1 -0 0
    outer loop
      vertex 3 50 25
      vertex 3 52.5 3
      vertex 3 52.5 25
    endloop
  endfacet
  facet normal 1 0 0
    outer loop
      vertex 3 52.5 3
      vertex 3 50 25
      vertex 3 50 3
    endloop
  endfacet
  facet normal 1 -0 0
    outer loop
      vertex 3 44 25
      vertex 3 46 3
      vertex 3 46 25
    endloop
  endfacet
  facet normal 1 0 0
    outer loop
      vertex 3 46 3
      vertex 3 44 25
      vertex 3 44 3
    endloop
  endfacet
  facet normal -1 0 0
    outer loop
      vertex 37 35 3
      vertex 37 39.5 25
      vertex 37 39.5 3
    endloop
  endfacet
  facet normal -1 -0 0
    outer loop
      vertex 37 39.5 25
      vertex 37 35 3
      vertex 37 35 25
    endloop
  endfacet
  facet normal -1 0 0
    outer loop
      vertex 37 61 3
      vertex 37 66 25
      vertex 37 66 3
    endloop
  endfacet
  facet normal -1 -0 0
    outer loop
      vertex 37 66 25
      vertex 37 61 3
      vertex 37 61 25
    endloop
  endfacet
  facet normal -1 0 0
    outer loop
      vertex 37 56 3
      vertex 37 58 25
      vertex 37 58 3
    endloop
  endfacet
  facet normal -1 -0 0
    outer loop
      vertex 37 58 25
      vertex 37 56 3
      vertex 37 56 25
    endloop
  endfacet
  facet normal -1 0 0
    outer loop
      vertex 37 50 3
      vertex 37 52.5 25
      vertex 37 52.5 3
    endloop
  endfacet
  facet normal -1 -0 0
    outer loop
      vertex 37 52.5 25
      vertex 37 50 3
      vertex 37 50 25
    endloop
  endfacet
  facet normal -1 0 0
    outer loop
      vertex 37 44 3
      vertex 37 46 25
      vertex 37 46 3
    endloop
  endfacet
  facet normal -1 -0 0
    outer loop
      vertex 37 46 25
      vertex 37 44 3
      vertex 37 44 25
    endloop
  endfacet
  facet normal -0 0 1
    outer loop
      vertex 3 39.5 3
      vertex 37 35 3
      vertex 37 39.5 3
    endloop
  endfacet
  facet normal 0 0 1
    outer loop
      vertex 37 35 3
      vertex 3 39.5 3
      vertex 3 35 3
    endloop
  endfacet
  facet normal -0 0 1
    outer loop
      vertex 3 66 3
      vertex 37 61 3
      vertex 37 66 3
    endloop
  endfacet
  facet normal 0 0 1
    outer loop
      vertex 37 61 3
      vertex 3 66 3
      vertex 3 61 3
    endloop
  endfacet
  facet normal -0 0 1
    outer loop
      vertex 3 58 3
      vertex 37 56 3
      vertex 37 58 3
    endloop
  endfacet
  facet normal 0 0 1
    outer loop
      vertex 37 56 3
      vertex 3 58 3
      vertex 3 56 3
    endloop
  endfacet
  facet normal -0 0 1
    outer loop
      vertex 3 52.5 3
      vertex 37 50 3
      vertex 37 52.5 3
    endloop
  endfacet
  facet normal 0 0 1
    outer loop
      vertex 37 50 3
      vertex 3 52.5 3
      vertex 3 50 3
    endloop
  endfacet
  facet normal -0 0 1
    outer loop
      vertex 3 46 3
      vertex 37 44 3
      vertex 37 46 3
    endloop
  endfacet
  facet normal 0 0 1
    outer loop
      vertex 37 44 3
      vertex 3 46 3
      vertex 3 44 3
    endloop
  endfacet
  facet normal 1 -0 0
    outer loop
      vertex 2 58 25
      vertex 2 61 2
      vertex 2 61 25
    endloop
  endfacet
  facet normal 1 0 0
    outer loop
      vertex 2 61 2
      vertex 2 58 25
      vertex 2 58 2
    endloop
  endfacet
  facet normal 0 1 0
    outer loop
      vertex 38 58 25
      vertex 37 58 3
      vertex 37 58 25
    endloop
  endfacet
  facet normal 0 1 0
    outer loop
      vertex 37 58 3
      vertex 38 58 2
      vertex 3 58 3
    endloop
  endfacet
  facet normal 0 1 -0
    outer loop
      vertex 38 58 2
      vertex 37 58 3
      vertex 38 58 25
    endloop
  endfacet
  facet normal 0 1 -0
    outer loop
      vertex 3 58 3
      vertex 2 58 25
      vertex 3 58 25
    endloop
  endfacet
  facet normal 0 1 0
    outer loop
      vertex 3 58 3
      vertex 2 58 2
      vertex 2 58 25
    endloop
  endfacet
  facet normal 0 1 0
    outer loop
      vertex 2 58 2
      vertex 3 58 3
      vertex 38 58 2
    endloop
  endfacet
  facet normal -1 0 0
    outer loop
      vertex 38 58 2
      vertex 38 61 25
      vertex 38 61 2
    endloop
  endfacet
  facet normal -1 -0 0
    outer loop
      vertex 38 61 25
      vertex 38 58 2
      vertex 38 58 25
    endloop
  endfacet
  facet normal 0 -1 0
    outer loop
      vertex 2 61 25
      vertex 3 61 3
      vertex 3 61 25
    endloop
  endfacet
  facet normal 0 -1 -0
    outer loop
      vertex 3 61 3
      vertex 2 61 2
      vertex 37 61 3
    endloop
  endfacet
  facet normal 0 -1 0
    outer loop
      vertex 2 61 2
      vertex 3 61 3
      vertex 2 61 25
    endloop
  endfacet
  facet normal 0 -1 0
    outer loop
      vertex 37 61 3
      vertex 38 61 25
      vertex 37 61 25
    endloop
  endfacet
  facet normal 0 -1 0
    outer loop
      vertex 37 61 3
      vertex 38 61 2
      vertex 38 61 25
    endloop
  endfacet
  facet normal 0 -1 0
    outer loop
      vertex 38 61 2
      vertex 37 61 3
      vertex 2 61 2
    endloop
  endfacet
  facet normal -0 0 1
    outer loop
      vertex 2 61 2
      vertex 38 58 2
      vertex 38 61 2
    endloop
  endfacet
  facet normal 0 0 1
    outer loop
      vertex 38 58 2
      vertex 2 61 2
      vertex 2 58 2
    endloop
  endfacet
  facet normal 1 -0 0
    outer loop
      vertex 2 52.5 25
      vertex 2 56 2
      vertex 2 56 25
    endloop
  endfacet
  facet normal 1 0 0
    outer loop
      vertex 2 56 2
      vertex 2 52.5 25
      vertex 2 52.5 2
    endloop
  endfacet
  facet normal 0 1 0
    outer loop
      vertex 38 52.5 25
      vertex 37 52.5 3
      vertex 37 52.5 25
    endloop
  endfacet
  facet normal 0 1 0
    outer loop
      vertex 37 52.5 3
      vertex 38 52.5 2
      vertex 3 52.5 3
    endloop
  endfacet
  facet normal 0 1 -0
    outer loop
      vertex 38 52.5 2
      vertex 37 52.5 3
      vertex 38 52.5 25
    endloop
  endfacet
  facet normal 0 1 -0
    outer loop
      vertex 3 52.5 3
      vertex 2 52.5 25
      vertex 3 52.5 25
    endloop
  endfacet
  facet normal 0 1 0
    outer loop
      vertex 3 52.5 3
      vertex 2 52.5 2
      vertex 2 52.5 25
    endloop
  endfacet
  facet normal 0 1 0
    outer loop
      vertex 2 52.5 2
      vertex 3 52.5 3
      vertex 38 52.5 2
    endloop
  endfacet
  facet normal -1 0 0
    outer loop
      vertex 38 52.5 2
      vertex 38 56 25
      vertex 38 56 2
    endloop
  endfacet
  facet normal -1 -0 0
    outer loop
      vertex 38 56 25
      vertex 38 52.5 2
      vertex 38 52.5 25
    endloop
  endfacet
  facet normal 0 -1 0
    outer loop
      vertex 2 56 25
      vertex 3 56 3
      vertex 3 56 25
    endloop
  endfacet
  facet normal 0 -1 -0
    outer loop
      vertex 3 56 3
      vertex 2 56 2
      vertex 37 56 3
    endloop
  endfacet
  facet normal 0 -1 0
    outer loop
      vertex 2 56 2
      vertex 3 56 3
      vertex 2 56 25
    endloop
  endfacet
  facet normal 0 -1 0
    outer loop
      vertex 37 56 3
      vertex 38 56 25
      vertex 37 56 25
    endloop
  endfacet
  facet normal 0 -1 0
    outer loop
      vertex 37 56 3
      vertex 38 56 2
      vertex 38 56 25
    endloop
  endfacet
  facet normal 0 -1 0
    outer loop
      vertex 38 56 2
      vertex 37 56 3
      vertex 2 56 2
    endloop
  endfacet
  facet normal -0 0 1
    outer loop
      vertex 2 56 2
      vertex 38 52.5 2
      vertex 38 56 2
    endloop
  endfacet
  facet normal 0 0 1
    outer loop
      vertex 38 52.5 2
      vertex 2 56 2
      vertex 2 52.5 2
    endloop
  endfacet
  facet normal 1 -0 0
    outer loop
      vertex 2 46 25
      vertex 2 50 2
      vertex 2 50 25
    endloop
  endfacet
  facet normal 1 0 0
    outer loop
      vertex 2 50 2
      vertex 2 46 25
      vertex 2 46 2
    endloop
  endfacet
  facet normal 0 1 0
    outer loop
      vertex 38 46 25
      vertex 37 46 3
      vertex 37 46 25
    endloop
  endfacet
  facet normal 0 1 0
    outer loop
      vertex 37 46 3
      vertex 38 46 2
      vertex 3 46 3
    endloop
  endfacet
  facet normal 0 1 -0
    outer loop
      vertex 38 46 2
      vertex 37 46 3
      vertex 38 46 25
    endloop
  endfacet
  facet normal 0 1 -0
    outer loop
      vertex 3 46 3
      vertex 2 46 25
      vertex 3 46 25
    endloop
  endfacet
  facet normal 0 1 0
    outer loop
      vertex 3 46 3
      vertex 2 46 2
      vertex 2 46 25
    endloop
  endfacet
  facet normal 0 1 0
    outer loop
      vertex 2 46 2
      vertex 3 46 3
      vertex 38 46 2
    endloop
  endfacet
  facet normal -1 0 0
    outer loop
      vertex 38 46 2
      vertex 38 50 25
      vertex 38 50 2
    endloop
  endfacet
  facet normal -1 -0 0
    outer loop
      vertex 38 50 25
      vertex 38 46 2
      vertex 38 46 25
    endloop
  endfacet
  facet normal 0 -1 0
    outer loop
      vertex 2 50 25
      vertex 3 50 3
      vertex 3 50 25
    endloop
  endfacet
  facet normal 0 -1 -0
    outer loop
      vertex 3 50 3
      vertex 2 50 2
      vertex 37 50 3
    endloop
  endfacet
  facet normal 0 -1 0
    outer loop
      vertex 2 50 2
      vertex 3 50 3
      vertex 2 50 25
    endloop
  endfacet
  facet normal 0 -1 0
    outer loop
      vertex 37 50 3
      vertex 38 50 25
      vertex 37 50 25
    endloop
  endfacet
  facet normal 0 -1 0
    outer loop
      vertex 37 50 3
      vertex 38 50 2
      vertex 38 50 25
    endloop
  endfacet
  facet normal 0 -1 0
    outer loop
      vertex 38 50 2
      vertex 37 50 3
      vertex 2 50 2
    endloop
  endfacet
  facet normal -0 0 1
    outer loop
      vertex 2 50 2
      vertex 38 46 2
      vertex 38 50 2
    endloop
  endfacet
  facet normal 0 0 1
    outer loop
      vertex 38 46 2
      vertex 2 50 2
      vertex 2 46 2
    endloop
  endfacet
  facet normal 1 -0 0
    outer loop
      vertex 2 39.5 25
      vertex 2 44 2
      vertex 2 44 25
    endloop
  endfacet
  facet normal 1 0 0
    outer loop
      vertex 2 44 2
      vertex 2 39.5 25
      vertex 2 39.5 2
    endloop
  endfacet
  facet normal 0 1 0
    outer loop
      vertex 38 39.5 25
      vertex 37 39.5 3
      vertex 37 39.5 25
    endloop
  endfacet
  facet normal 0 1 0
    outer loop
      vertex 37 39.5 3
      vertex 38 39.5 2
      vertex 3 39.5 3
    endloop
  endfacet
  facet normal 0 1 -0
    outer loop
      vertex 38 39.5 2
      vertex 37 39.5 3
      vertex 38 39.5 25
    endloop
  endfacet
  facet normal 0 1 -0
    outer loop
      vertex 3 39.5 3
      vertex 2 39.5 25
      vertex 3 39.5 25
    endloop
  endfacet
  facet normal 0 1 0
    outer loop
      vertex 3 39.5 3
      vertex 2 39.5 2
      vertex 2 39.5 25
    endloop
  endfacet
  facet normal 0 1 0
    outer loop
      vertex 2 39.5 2
      vertex 3 39.5 3
      vertex 38 39.5 2
    endloop
  endfacet
  facet normal -1 0 0
    outer loop
      vertex 38 39.5 2
      vertex 38 44 25
      vertex 38 44 2
    endloop
  endfacet
  facet normal -1 -0 0
    outer loop
      vertex 38 44 25
      vertex 38 39.5 2
      vertex 38 39.5 25
    endloop
  endfacet
  facet normal 0 -1 0
    outer loop
      vertex 2 44 25
      vertex 3 44 3
      vertex 3 44 25
    endloop
  endfacet
  facet normal 0 -1 -0
    outer loop
      vertex 3 44 3
      vertex 2 44 2
      vertex 37 44 3
    endloop
  endfacet
  facet normal 0 -1 0
    outer loop
      vertex 2 44 2
      vertex 3 44 3
      vertex 2 44 25
    endloop
  endfacet
  facet normal 0 -1 0
    outer loop
      vertex 37 44 3
      vertex 38 44 25
      vertex 37 44 25
    endloop
  endfacet
  facet normal 0 -1 0
    outer loop
      vertex 37 44 3
      vertex 38 44 2
      vertex 38 44 25
    endloop
  endfacet
  facet normal 0 -1 0
    outer loop
      vertex 38 44 2
      vertex 37 44 3
      vertex 2 44 2
    endloop
  endfacet
  facet normal -0 0 1
    outer loop
      vertex 2 44 2
      vertex 38 39.5 2
      vertex 38 44 2
    endloop
  endfacet
  facet normal 0 0 1
    outer loop
      vertex 38 39.5 2
      vertex 2 44 2
      vertex 2 39.5 2
    endloop
  endfacet
endsolid OpenSCAD_Model
