solid OpenSCAD_Model
  facet normal -1 0 0
    outer loop
      vertex 0 0 0
      vertex 0 30 3
      vertex 0 30 0
    endloop
  endfacet
  facet normal -1 -0 0
    outer loop
      vertex 0 30 3
      vertex 0 0 0
      vertex 0 0 3
    endloop
  endfacet
  facet normal -0 0 1
    outer loop
      vertex 8.42705 7.76336 3
      vertex 36 0 3
      vertex 36 30 3
    endloop
  endfacet
  facet normal 0 0 1
    outer loop
      vertex 36 0 3
      vertex 8.42705 7.76336 3
      vertex 9 6 3
    endloop
  endfacet
  facet normal 0 0 1
    outer loop
      vertex 36 30 3
      vertex 6.92705 8.85317 3
      vertex 8.42705 7.76336 3
    endloop
  endfacet
  facet normal -0 0 1
    outer loop
      vertex 0 30 3
      vertex 6.92705 8.85317 3
      vertex 36 30 3
    endloop
  endfacet
  facet normal 0 0 1
    outer loop
      vertex 3.57295 7.76336 3
      vertex 0 30 3
      vertex 3 6 3
    endloop
  endfacet
  facet normal 0 0 1
    outer loop
      vertex 5.07295 8.85317 3
      vertex 0 30 3
      vertex 3.57295 7.76336 3
    endloop
  endfacet
  facet normal 0 0 1
    outer loop
      vertex 6.92705 8.85317 3
      vertex 0 30 3
      vertex 5.07295 8.85317 3
    endloop
  endfacet
  facet normal -0 0 1
    outer loop
      vertex 8.42705 4.23664 3
      vertex 36 0 3
      vertex 9 6 3
    endloop
  endfacet
  facet normal -0 0 1
    outer loop
      vertex 6.92705 3.14683 3
      vertex 36 0 3
      vertex 8.42705 4.23664 3
    endloop
  endfacet
  facet normal 0 0 1
    outer loop
      vertex 0 0 3
      vertex 6.92705 3.14683 3
      vertex 5.07295 3.14683 3
    endloop
  endfacet
  facet normal 0 0 1
    outer loop
      vertex 6.92705 3.14683 3
      vertex 0 0 3
      vertex 36 0 3
    endloop
  endfacet
  facet normal 0 0 1
    outer loop
      vertex 3.57295 4.23664 3
      vertex 0 0 3
      vertex 5.07295 3.14683 3
    endloop
  endfacet
  facet normal 0 0 1
    outer loop
      vertex 3 6 3
      vertex 0 0 3
      vertex 3.57295 4.23664 3
    endloop
  endfacet
  facet normal 0 0 1
    outer loop
      vertex 0 0 3
      vertex 3 6 3
      vertex 0 30 3
    endloop
  endfacet
  facet normal 1 -0 0
    outer loop
      vertex 36 0 3
      vertex 36 30 0
      vertex 36 30 3
    endloop
  endfacet
  facet normal 1 0 0
    outer loop
      vertex 36 30 0
      vertex 36 0 3
      vertex 36 0 0
    endloop
  endfacet
  facet normal 0 1 -0
    outer loop
      vertex 36 30 0
      vertex 0 30 3
      vertex 36 30 3
    endloop
  endfacet
  facet normal 0 1 0
    outer loop
      vertex 0 30 3
      vertex 36 30 0
      vertex 0 30 0
    endloop
  endfacet
  facet normal 0 0 -1
    outer loop
      vertex 0 0 0
      vertex 36 30 0
      vertex 36 0 0
    endloop
  endfacet
  facet normal -0 0 -1
    outer loop
      vertex 36 30 0
      vertex 0 0 0
      vertex 0 30 0
    endloop
  endfacet
  facet normal 0 -1 0
    outer loop
      vertex 0 0 0
      vertex 36 0 3
      vertex 0 0 3
    endloop
  endfacet
  facet normal 0 -1 -0
    outer loop
      vertex 36 0 3
      vertex 0 0 0
      vertex 36 0 0
    endloop
  endfacet
  facet normal -0.951056 -0.309017 0
    outer loop
      vertex 9 6 2
      vertex 8.42705 7.76336 3
      vertex 8.42705 7.76336 2
    endloop
  endfacet
  facet normal -0.951056 -0.309017 0
    outer loop
      vertex 8.42705 7.76336 3
      vertex 9 6 2
      vertex 9 6 3
    endloop
  endfacet
  facet normal 0.951057 0.309017 0
    outer loop
      vertex 3.57295 4.23664 3
      vertex 3 6 2
      vertex 3 6 3
    endloop
  endfacet
  facet normal 0.951057 0.309017 0
    outer loop
      vertex 3 6 2
      vertex 3.57295 4.23664 3
      vertex 3.57295 4.23664 2
    endloop
  endfacet
  facet normal 0 -1 0
    outer loop
      vertex 5.07295 8.85317 2
      vertex 6.92705 8.85317 3
      vertex 5.07295 8.85317 3
    endloop
  endfacet
  facet normal 0 -1 -0
    outer loop
      vertex 6.92705 8.85317 3
      vertex 5.07295 8.85317 2
      vertex 6.92705 8.85317 2
    endloop
  endfacet
  facet normal -0.587785 -0.809017 0
    outer loop
      vertex 6.92705 8.85317 2
      vertex 8.42705 7.76336 3
      vertex 6.92705 8.85317 3
    endloop
  endfacet
  facet normal -0.587785 -0.809017 -0
    outer loop
      vertex 8.42705 7.76336 3
      vertex 6.92705 8.85317 2
      vertex 8.42705 7.76336 2
    endloop
  endfacet
  facet normal 0.587785 -0.809017 0
    outer loop
      vertex 3.57295 7.76336 2
      vertex 5.07295 8.85317 3
      vertex 3.57295 7.76336 3
    endloop
  endfacet
  facet normal 0.587785 -0.809017 0
    outer loop
      vertex 5.07295 8.85317 3
      vertex 3.57295 7.76336 2
      vertex 5.07295 8.85317 2
    endloop
  endfacet
  facet normal -0.587785 0.809017 0
    outer loop
      vertex 8.42705 4.23664 2
      vertex 6.92705 3.14683 3
      vertex 8.42705 4.23664 3
    endloop
  endfacet
  facet normal -0.587785 0.809017 0
    outer loop
      vertex 6.92705 3.14683 3
      vertex 8.42705 4.23664 2
      vertex 6.92705 3.14683 2
    endloop
  endfacet
  facet normal 0.587785 0.809017 -0
    outer loop
      vertex 5.07295 3.14683 2
      vertex 3.57295 4.23664 3
      vertex 5.07295 3.14683 3
    endloop
  endfacet
  facet normal 0.587785 0.809017 0
    outer loop
      vertex 3.57295 4.23664 3
      vertex 5.07295 3.14683 2
      vertex 3.57295 4.23664 2
    endloop
  endfacet
  facet normal 0 0 1
    outer loop
      vertex 8.42705 7.76336 2
      vertex 8.42705 4.23664 2
      vertex 9 6 2
    endloop
  endfacet
  facet normal 0 0 1
    outer loop
      vertex 6.92705 8.85317 2
      vertex 8.42705 4.23664 2
      vertex 8.42705 7.76336 2
    endloop
  endfacet
  facet normal 0 0 1
    outer loop
      vertex 6.92705 8.85317 2
      vertex 6.92705 3.14683 2
      vertex 8.42705 4.23664 2
    endloop
  endfacet
  facet normal -0 0 1
    outer loop
      vertex 5.07295 8.85317 2
      vertex 6.92705 3.14683 2
      vertex 6.92705 8.85317 2
    endloop
  endfacet
  facet normal 0 0 1
    outer loop
      vertex 5.07295 8.85317 2
      vertex 5.07295 3.14683 2
      vertex 6.92705 3.14683 2
    endloop
  endfacet
  facet normal -0 0 1
    outer loop
      vertex 3.57295 7.76336 2
      vertex 5.07295 3.14683 2
      vertex 5.07295 8.85317 2
    endloop
  endfacet
  facet normal 0 0 1
    outer loop
      vertex 3.57295 7.76336 2
      vertex 3.57295 4.23664 2
      vertex 5.07295 3.14683 2
    endloop
  endfacet
  facet normal 0 -0 1
    outer loop
      vertex 3.57295 4.23664 2
      vertex 3.57295 7.76336 2
      vertex 3 6 2
    endloop
  endfacet
  facet normal 0.951057 -0.309017 0
    outer loop
      vertex 3 6 3
      vertex 3.57295 7.76336 2
      vertex 3.57295 7.76336 3
    endloop
  endfacet
  facet normal 0.951057 -0.309017 0
    outer loop
      vertex 3.57295 7.76336 2
      vertex 3 6 3
      vertex 3 6 2
    endloop
  endfacet
  facet normal 0 1 -0
    outer loop
      vertex 6.92705 3.14683 2
      vertex 5.07295 3.14683 3
      vertex 6.92705 3.14683 3
    endloop
  endfacet
  facet normal 0 1 0
    outer loop
      vertex 5.07295 3.14683 3
      vertex 6.92705 3.14683 2
      vertex 5.07295 3.14683 2
    endloop
  endfacet
  facet normal -0.951056 0.309017 0
    outer loop
      vertex 8.42705 4.23664 2
      vertex 9 6 3
      vertex 9 6 2
    endloop
  endfacet
  facet normal -0.951056 0.309017 0
    outer loop
      vertex 9 6 3
      vertex 8.42705 4.23664 2
      vertex 8.42705 4.23664 3
    endloop
  endfacet
  facet normal -1 0 0
    outer loop
      vertex 40 0 0
      vertex 40 30 3
      vertex 40 30 0
    endloop
  endfacet
  facet normal -1 -0 0
    outer loop
      vertex 40 30 3
      vertex 40 0 0
      vertex 40 0 3
    endloop
  endfacet
  facet normal -0 0 1
    outer loop
      vertex 56.4271 7.76336 3
      vertex 75.5 0 3
      vertex 75.5 30 3
    endloop
  endfacet
  facet normal 0 0 1
    outer loop
      vertex 75.5 0 3
      vertex 56.4271 7.76336 3
      vertex 57 6 3
    endloop
  endfacet
  facet normal 0 0 1
    outer loop
      vertex 75.5 30 3
      vertex 54.9271 8.85317 3
      vertex 56.4271 7.76336 3
    endloop
  endfacet
  facet normal -0 0 1
    outer loop
      vertex 40 30 3
      vertex 54.9271 8.85317 3
      vertex 75.5 30 3
    endloop
  endfacet
  facet normal 0 0 1
    outer loop
      vertex 54.9271 8.85317 3
      vertex 40 30 3
      vertex 53.0729 8.85317 3
    endloop
  endfacet
  facet normal 0 0 1
    outer loop
      vertex 51.5729 7.76336 3
      vertex 49 6 3
      vertex 51 6 3
    endloop
  endfacet
  facet normal 0 -0 1
    outer loop
      vertex 46.9271 8.85317 3
      vertex 53.0729 8.85317 3
      vertex 40 30 3
    endloop
  endfacet
  facet normal 0 0 1
    outer loop
      vertex 51.5729 7.76336 3
      vertex 48.4271 7.76336 3
      vertex 49 6 3
    endloop
  endfacet
  facet normal 0 0 1
    outer loop
      vertex 51.5729 7.76336 3
      vertex 46.9271 8.85317 3
      vertex 48.4271 7.76336 3
    endloop
  endfacet
  facet normal 0 0 1
    outer loop
      vertex 53.0729 8.85317 3
      vertex 46.9271 8.85317 3
      vertex 51.5729 7.76336 3
    endloop
  endfacet
  facet normal 0 0 1
    outer loop
      vertex 43.5729 7.76336 3
      vertex 40 30 3
      vertex 43 6 3
    endloop
  endfacet
  facet normal 0 0 1
    outer loop
      vertex 45.0729 8.85317 3
      vertex 40 30 3
      vertex 43.5729 7.76336 3
    endloop
  endfacet
  facet normal 0 0 1
    outer loop
      vertex 46.9271 8.85317 3
      vertex 40 30 3
      vertex 45.0729 8.85317 3
    endloop
  endfacet
  facet normal -0 0 1
    outer loop
      vertex 56.4271 4.23664 3
      vertex 75.5 0 3
      vertex 57 6 3
    endloop
  endfacet
  facet normal -0 0 1
    outer loop
      vertex 54.9271 3.14683 3
      vertex 75.5 0 3
      vertex 56.4271 4.23664 3
    endloop
  endfacet
  facet normal 0 0 1
    outer loop
      vertex 40 0 3
      vertex 54.9271 3.14683 3
      vertex 53.0729 3.14683 3
    endloop
  endfacet
  facet normal -0 0 1
    outer loop
      vertex 49 6 3
      vertex 51.5729 4.23664 3
      vertex 51 6 3
    endloop
  endfacet
  facet normal 0 0 1
    outer loop
      vertex 48.4271 4.23664 3
      vertex 51.5729 4.23664 3
      vertex 49 6 3
    endloop
  endfacet
  facet normal 0 0 1
    outer loop
      vertex 51.5729 4.23664 3
      vertex 48.4271 4.23664 3
      vertex 53.0729 3.14683 3
    endloop
  endfacet
  facet normal 0 0 1
    outer loop
      vertex 46.9271 3.14683 3
      vertex 53.0729 3.14683 3
      vertex 48.4271 4.23664 3
    endloop
  endfacet
  facet normal 0 0 1
    outer loop
      vertex 40 0 3
      vertex 53.0729 3.14683 3
      vertex 46.9271 3.14683 3
    endloop
  endfacet
  facet normal 0 0 1
    outer loop
      vertex 40 0 3
      vertex 46.9271 3.14683 3
      vertex 45.0729 3.14683 3
    endloop
  endfacet
  facet normal 0 0 1
    outer loop
      vertex 54.9271 3.14683 3
      vertex 40 0 3
      vertex 75.5 0 3
    endloop
  endfacet
  facet normal 0 0 1
    outer loop
      vertex 43.5729 4.23664 3
      vertex 40 0 3
      vertex 45.0729 3.14683 3
    endloop
  endfacet
  facet normal 0 0 1
    outer loop
      vertex 43 6 3
      vertex 40 0 3
      vertex 43.5729 4.23664 3
    endloop
  endfacet
  facet normal 0 0 1
    outer loop
      vertex 40 0 3
      vertex 43 6 3
      vertex 40 30 3
    endloop
  endfacet
  facet normal 1 -0 0
    outer loop
      vertex 75.5 0 3
      vertex 75.5 30 0
      vertex 75.5 30 3
    endloop
  endfacet
  facet normal 1 0 0
    outer loop
      vertex 75.5 30 0
      vertex 75.5 0 3
      vertex 75.5 0 0
    endloop
  endfacet
  facet normal 0 1 -0
    outer loop
      vertex 75.5 30 0
      vertex 40 30 3
      vertex 75.5 30 3
    endloop
  endfacet
  facet normal 0 1 0
    outer loop
      vertex 40 30 3
      vertex 75.5 30 0
      vertex 40 30 0
    endloop
  endfacet
  facet normal 0 0 -1
    outer loop
      vertex 40 0 0
      vertex 75.5 30 0
      vertex 75.5 0 0
    endloop
  endfacet
  facet normal -0 0 -1
    outer loop
      vertex 75.5 30 0
      vertex 40 0 0
      vertex 40 30 0
    endloop
  endfacet
  facet normal 0 -1 0
    outer loop
      vertex 40 0 0
      vertex 75.5 0 3
      vertex 40 0 3
    endloop
  endfacet
  facet normal 0 -1 -0
    outer loop
      vertex 75.5 0 3
      vertex 40 0 0
      vertex 75.5 0 0
    endloop
  endfacet
  facet normal -0.951057 -0.309017 0
    outer loop
      vertex 49 6 2
      vertex 48.4271 7.76336 3
      vertex 48.4271 7.76336 2
    endloop
  endfacet
  facet normal -0.951057 -0.309017 0
    outer loop
      vertex 48.4271 7.76336 3
      vertex 49 6 2
      vertex 49 6 3
    endloop
  endfacet
  facet normal 0 -1 0
    outer loop
      vertex 45.0729 8.85317 2
      vertex 46.9271 8.85317 3
      vertex 45.0729 8.85317 3
    endloop
  endfacet
  facet normal 0 -1 -0
    outer loop
      vertex 46.9271 8.85317 3
      vertex 45.0729 8.85317 2
      vertex 46.9271 8.85317 2
    endloop
  endfacet
  facet normal -0.587785 -0.809017 0
    outer loop
      vertex 46.9271 8.85317 2
      vertex 48.4271 7.76336 3
      vertex 46.9271 8.85317 3
    endloop
  endfacet
  facet normal -0.587785 -0.809017 -0
    outer loop
      vertex 48.4271 7.76336 3
      vertex 46.9271 8.85317 2
      vertex 48.4271 7.76336 2
    endloop
  endfacet
  facet normal 0.587785 -0.809017 0
    outer loop
      vertex 43.5729 7.76336 2
      vertex 45.0729 8.85317 3
      vertex 43.5729 7.76336 3
    endloop
  endfacet
  facet normal 0.587785 -0.809017 0
    outer loop
      vertex 45.0729 8.85317 3
      vertex 43.5729 7.76336 2
      vertex 45.0729 8.85317 2
    endloop
  endfacet
  facet normal -0.587785 0.809017 0
    outer loop
      vertex 48.4271 4.23664 2
      vertex 46.9271 3.14683 3
      vertex 48.4271 4.23664 3
    endloop
  endfacet
  facet normal -0.587785 0.809017 0
    outer loop
      vertex 46.9271 3.14683 3
      vertex 48.4271 4.23664 2
      vertex 46.9271 3.14683 2
    endloop
  endfacet
  facet normal 0.587785 0.809017 -0
    outer loop
      vertex 45.0729 3.14683 2
      vertex 43.5729 4.23664 3
      vertex 45.0729 3.14683 3
    endloop
  endfacet
  facet normal 0.587785 0.809017 0
    outer loop
      vertex 43.5729 4.23664 3
      vertex 45.0729 3.14683 2
      vertex 43.5729 4.23664 2
    endloop
  endfacet
  facet normal 0 0 1
    outer loop
      vertex 48.4271 7.76336 2
      vertex 48.4271 4.23664 2
      vertex 49 6 2
    endloop
  endfacet
  facet normal 0 0 1
    outer loop
      vertex 46.9271 8.85317 2
      vertex 48.4271 4.23664 2
      vertex 48.4271 7.76336 2
    endloop
  endfacet
  facet normal 0 0 1
    outer loop
      vertex 46.9271 8.85317 2
      vertex 46.9271 3.14683 2
      vertex 48.4271 4.23664 2
    endloop
  endfacet
  facet normal -0 0 1
    outer loop
      vertex 45.0729 8.85317 2
      vertex 46.9271 3.14683 2
      vertex 46.9271 8.85317 2
    endloop
  endfacet
  facet normal 0 0 1
    outer loop
      vertex 45.0729 8.85317 2
      vertex 45.0729 3.14683 2
      vertex 46.9271 3.14683 2
    endloop
  endfacet
  facet normal -0 0 1
    outer loop
      vertex 43.5729 7.76336 2
      vertex 45.0729 3.14683 2
      vertex 45.0729 8.85317 2
    endloop
  endfacet
  facet normal 0 0 1
    outer loop
      vertex 43.5729 7.76336 2
      vertex 43.5729 4.23664 2
      vertex 45.0729 3.14683 2
    endloop
  endfacet
  facet normal 0 -0 1
    outer loop
      vertex 43.5729 4.23664 2
      vertex 43.5729 7.76336 2
      vertex 43 6 2
    endloop
  endfacet
  facet normal 0.951057 -0.309017 0
    outer loop
      vertex 43 6 3
      vertex 43.5729 7.76336 2
      vertex 43.5729 7.76336 3
    endloop
  endfacet
  facet normal 0.951057 -0.309017 0
    outer loop
      vertex 43.5729 7.76336 2
      vertex 43 6 3
      vertex 43 6 2
    endloop
  endfacet
  facet normal 0 1 -0
    outer loop
      vertex 46.9271 3.14683 2
      vertex 45.0729 3.14683 3
      vertex 46.9271 3.14683 3
    endloop
  endfacet
  facet normal 0 1 0
    outer loop
      vertex 45.0729 3.14683 3
      vertex 46.9271 3.14683 2
      vertex 45.0729 3.14683 2
    endloop
  endfacet
  facet normal 0.951057 0.309017 0
    outer loop
      vertex 43.5729 4.23664 3
      vertex 43 6 2
      vertex 43 6 3
    endloop
  endfacet
  facet normal 0.951057 0.309017 0
    outer loop
      vertex 43 6 2
      vertex 43.5729 4.23664 3
      vertex 43.5729 4.23664 2
    endloop
  endfacet
  facet normal -0.951057 0.309017 0
    outer loop
      vertex 48.4271 4.23664 2
      vertex 49 6 3
      vertex 49 6 2
    endloop
  endfacet
  facet normal -0.951057 0.309017 0
    outer loop
      vertex 49 6 3
      vertex 48.4271 4.23664 2
      vertex 48.4271 4.23664 3
    endloop
  endfacet
  facet normal -0.951057 -0.309017 0
    outer loop
      vertex 57 6 2
      vertex 56.4271 7.76336 3
      vertex 56.4271 7.76336 2
    endloop
  endfacet
  facet normal -0.951057 -0.309017 0
    outer loop
      vertex 56.4271 7.76336 3
      vertex 57 6 2
      vertex 57 6 3
    endloop
  endfacet
  facet normal 0.951057 0.309017 0
    outer loop
      vertex 51.5729 4.23664 3
      vertex 51 6 2
      vertex 51 6 3
    endloop
  endfacet
  facet normal 0.951057 0.309017 0
    outer loop
      vertex 51 6 2
      vertex 51.5729 4.23664 3
      vertex 51.5729 4.23664 2
    endloop
  endfacet
  facet normal 0 -1 0
    outer loop
      vertex 53.0729 8.85317 2
      vertex 54.9271 8.85317 3
      vertex 53.0729 8.85317 3
    endloop
  endfacet
  facet normal 0 -1 -0
    outer loop
      vertex 54.9271 8.85317 3
      vertex 53.0729 8.85317 2
      vertex 54.9271 8.85317 2
    endloop
  endfacet
  facet normal -0.587785 -0.809017 0
    outer loop
      vertex 54.9271 8.85317 2
      vertex 56.4271 7.76336 3
      vertex 54.9271 8.85317 3
    endloop
  endfacet
  facet normal -0.587785 -0.809017 -0
    outer loop
      vertex 56.4271 7.76336 3
      vertex 54.9271 8.85317 2
      vertex 56.4271 7.76336 2
    endloop
  endfacet
  facet normal 0.587785 -0.809017 0
    outer loop
      vertex 51.5729 7.76336 2
      vertex 53.0729 8.85317 3
      vertex 51.5729 7.76336 3
    endloop
  endfacet
  facet normal 0.587785 -0.809017 0
    outer loop
      vertex 53.0729 8.85317 3
      vertex 51.5729 7.76336 2
      vertex 53.0729 8.85317 2
    endloop
  endfacet
  facet normal -0.587785 0.809017 0
    outer loop
      vertex 56.4271 4.23664 2
      vertex 54.9271 3.14683 3
      vertex 56.4271 4.23664 3
    endloop
  endfacet
  facet normal -0.587785 0.809017 0
    outer loop
      vertex 54.9271 3.14683 3
      vertex 56.4271 4.23664 2
      vertex 54.9271 3.14683 2
    endloop
  endfacet
  facet normal 0.587785 0.809017 -0
    outer loop
      vertex 53.0729 3.14683 2
      vertex 51.5729 4.23664 3
      vertex 53.0729 3.14683 3
    endloop
  endfacet
  facet normal 0.587785 0.809017 0
    outer loop
      vertex 51.5729 4.23664 3
      vertex 53.0729 3.14683 2
      vertex 51.5729 4.23664 2
    endloop
  endfacet
  facet normal 0 0 1
    outer loop
      vertex 56.4271 7.76336 2
      vertex 56.4271 4.23664 2
      vertex 57 6 2
    endloop
  endfacet
  facet normal 0 0 1
    outer loop
      vertex 54.9271 8.85317 2
      vertex 56.4271 4.23664 2
      vertex 56.4271 7.76336 2
    endloop
  endfacet
  facet normal 0 0 1
    outer loop
      vertex 54.9271 8.85317 2
      vertex 54.9271 3.14683 2
      vertex 56.4271 4.23664 2
    endloop
  endfacet
  facet normal -0 0 1
    outer loop
      vertex 53.0729 8.85317 2
      vertex 54.9271 3.14683 2
      vertex 54.9271 8.85317 2
    endloop
  endfacet
  facet normal 0 0 1
    outer loop
      vertex 53.0729 8.85317 2
      vertex 53.0729 3.14683 2
      vertex 54.9271 3.14683 2
    endloop
  endfacet
  facet normal -0 0 1
    outer loop
      vertex 51.5729 7.76336 2
      vertex 53.0729 3.14683 2
      vertex 53.0729 8.85317 2
    endloop
  endfacet
  facet normal 0 0 1
    outer loop
      vertex 51.5729 7.76336 2
      vertex 51.5729 4.23664 2
      vertex 53.0729 3.14683 2
    endloop
  endfacet
  facet normal 0 -0 1
    outer loop
      vertex 51.5729 4.23664 2
      vertex 51.5729 7.76336 2
      vertex 51 6 2
    endloop
  endfacet
  facet normal 0.951057 -0.309017 0
    outer loop
      vertex 51 6 3
      vertex 51.5729 7.76336 2
      vertex 51.5729 7.76336 3
    endloop
  endfacet
  facet normal 0.951057 -0.309017 0
    outer loop
      vertex 51.5729 7.76336 2
      vertex 51 6 3
      vertex 51 6 2
    endloop
  endfacet
  facet normal -0.951057 0.309017 0
    outer loop
      vertex 56.4271 4.23664 2
      vertex 57 6 3
      vertex 57 6 2
    endloop
  endfacet
  facet normal -0.951057 0.309017 0
    outer loop
      vertex 57 6 3
      vertex 56.4271 4.23664 2
      vertex 56.4271 4.23664 3
    endloop
  endfacet
  facet normal 0 1 -0
    outer loop
      vertex 54.9271 3.14683 2
      vertex 53.0729 3.14683 3
      vertex 54.9271 3.14683 3
    endloop
  endfacet
  facet normal 0 1 0
    outer loop
      vertex 53.0729 3.14683 3
      vertex 54.9271 3.14683 2
      vertex 53.0729 3.14683 2
    endloop
  endfacet
  facet normal -1 0 0
    outer loop
      vertex 80 0 0
      vertex 80 30 3
      vertex 80 30 0
    endloop
  endfacet
  facet normal -1 -0 0
    outer loop
      vertex 80 30 3
      vertex 80 0 0
      vertex 80 0 3
    endloop
  endfacet
  facet normal -0 0 1
    outer loop
      vertex 104.427 7.76336 3
      vertex 115 0 3
      vertex 115 30 3
    endloop
  endfacet
  facet normal 0 0 1
    outer loop
      vertex 115 0 3
      vertex 104.427 7.76336 3
      vertex 105 6 3
    endloop
  endfacet
  facet normal 0 0 1
    outer loop
      vertex 115 30 3
      vertex 102.927 8.85317 3
      vertex 104.427 7.76336 3
    endloop
  endfacet
  facet normal 0 0 1
    outer loop
      vertex 115 30 3
      vertex 101.073 8.85317 3
      vertex 102.927 8.85317 3
    endloop
  endfacet
  facet normal 0 0 1
    outer loop
      vertex 94.927 8.85317 3
      vertex 101.073 8.85317 3
      vertex 115 30 3
    endloop
  endfacet
  facet normal 0 0 1
    outer loop
      vertex 99.573 7.76336 3
      vertex 97 6 3
      vertex 99 6 3
    endloop
  endfacet
  facet normal 0 0 1
    outer loop
      vertex 101.073 8.85317 3
      vertex 94.927 8.85317 3
      vertex 99.573 7.76336 3
    endloop
  endfacet
  facet normal 0 0 1
    outer loop
      vertex 99.573 7.76336 3
      vertex 96.427 7.76336 3
      vertex 97 6 3
    endloop
  endfacet
  facet normal 0 0 1
    outer loop
      vertex 99.573 7.76336 3
      vertex 94.927 8.85317 3
      vertex 96.427 7.76336 3
    endloop
  endfacet
  facet normal -0 0 1
    outer loop
      vertex 80 30 3
      vertex 94.927 8.85317 3
      vertex 115 30 3
    endloop
  endfacet
  facet normal 0 0 1
    outer loop
      vertex 94.927 8.85317 3
      vertex 80 30 3
      vertex 93.073 8.85317 3
    endloop
  endfacet
  facet normal 0 0 1
    outer loop
      vertex 91.573 7.76336 3
      vertex 89 6 3
      vertex 91 6 3
    endloop
  endfacet
  facet normal 0 -0 1
    outer loop
      vertex 86.927 8.85317 3
      vertex 93.073 8.85317 3
      vertex 80 30 3
    endloop
  endfacet
  facet normal 0 0 1
    outer loop
      vertex 91.573 7.76336 3
      vertex 88.427 7.76336 3
      vertex 89 6 3
    endloop
  endfacet
  facet normal 0 0 1
    outer loop
      vertex 91.573 7.76336 3
      vertex 86.927 8.85317 3
      vertex 88.427 7.76336 3
    endloop
  endfacet
  facet normal 0 0 1
    outer loop
      vertex 93.073 8.85317 3
      vertex 86.927 8.85317 3
      vertex 91.573 7.76336 3
    endloop
  endfacet
  facet normal 0 0 1
    outer loop
      vertex 83.573 7.76336 3
      vertex 80 30 3
      vertex 83 6 3
    endloop
  endfacet
  facet normal 0 0 1
    outer loop
      vertex 85.073 8.85317 3
      vertex 80 30 3
      vertex 83.573 7.76336 3
    endloop
  endfacet
  facet normal 0 0 1
    outer loop
      vertex 86.927 8.85317 3
      vertex 80 30 3
      vertex 85.073 8.85317 3
    endloop
  endfacet
  facet normal -0 0 1
    outer loop
      vertex 104.427 4.23664 3
      vertex 115 0 3
      vertex 105 6 3
    endloop
  endfacet
  facet normal -0 0 1
    outer loop
      vertex 102.927 3.14683 3
      vertex 115 0 3
      vertex 104.427 4.23664 3
    endloop
  endfacet
  facet normal -0 0 1
    outer loop
      vertex 101.073 3.14683 3
      vertex 115 0 3
      vertex 102.927 3.14683 3
    endloop
  endfacet
  facet normal -0 0 1
    outer loop
      vertex 97 6 3
      vertex 99.573 4.23664 3
      vertex 99 6 3
    endloop
  endfacet
  facet normal 0 0 1
    outer loop
      vertex 96.427 4.23664 3
      vertex 99.573 4.23664 3
      vertex 97 6 3
    endloop
  endfacet
  facet normal 0 0 1
    outer loop
      vertex 99.573 4.23664 3
      vertex 96.427 4.23664 3
      vertex 101.073 3.14683 3
    endloop
  endfacet
  facet normal 0 0 1
    outer loop
      vertex 94.927 3.14683 3
      vertex 101.073 3.14683 3
      vertex 96.427 4.23664 3
    endloop
  endfacet
  facet normal -0 0 1
    outer loop
      vertex 94.927 3.14683 3
      vertex 115 0 3
      vertex 101.073 3.14683 3
    endloop
  endfacet
  facet normal 0 0 1
    outer loop
      vertex 80 0 3
      vertex 94.927 3.14683 3
      vertex 93.073 3.14683 3
    endloop
  endfacet
  facet normal -0 0 1
    outer loop
      vertex 89 6 3
      vertex 91.573 4.23664 3
      vertex 91 6 3
    endloop
  endfacet
  facet normal 0 0 1
    outer loop
      vertex 88.427 4.23664 3
      vertex 91.573 4.23664 3
      vertex 89 6 3
    endloop
  endfacet
  facet normal 0 0 1
    outer loop
      vertex 91.573 4.23664 3
      vertex 88.427 4.23664 3
      vertex 93.073 3.14683 3
    endloop
  endfacet
  facet normal 0 0 1
    outer loop
      vertex 86.927 3.14683 3
      vertex 93.073 3.14683 3
      vertex 88.427 4.23664 3
    endloop
  endfacet
  facet normal 0 0 1
    outer loop
      vertex 80 0 3
      vertex 93.073 3.14683 3
      vertex 86.927 3.14683 3
    endloop
  endfacet
  facet normal 0 0 1
    outer loop
      vertex 80 0 3
      vertex 86.927 3.14683 3
      vertex 85.073 3.14683 3
    endloop
  endfacet
  facet normal 0 0 1
    outer loop
      vertex 94.927 3.14683 3
      vertex 80 0 3
      vertex 115 0 3
    endloop
  endfacet
  facet normal 0 0 1
    outer loop
      vertex 83.573 4.23664 3
      vertex 80 0 3
      vertex 85.073 3.14683 3
    endloop
  endfacet
  facet normal 0 0 1
    outer loop
      vertex 83 6 3
      vertex 80 0 3
      vertex 83.573 4.23664 3
    endloop
  endfacet
  facet normal 0 0 1
    outer loop
      vertex 80 0 3
      vertex 83 6 3
      vertex 80 30 3
    endloop
  endfacet
  facet normal 1 -0 0
    outer loop
      vertex 115 0 3
      vertex 115 30 0
      vertex 115 30 3
    endloop
  endfacet
  facet normal 1 0 0
    outer loop
      vertex 115 30 0
      vertex 115 0 3
      vertex 115 0 0
    endloop
  endfacet
  facet normal 0 0 -1
    outer loop
      vertex 80 0 0
      vertex 115 30 0
      vertex 115 0 0
    endloop
  endfacet
  facet normal -0 0 -1
    outer loop
      vertex 115 30 0
      vertex 80 0 0
      vertex 80 30 0
    endloop
  endfacet
  facet normal 0 -1 0
    outer loop
      vertex 80 0 0
      vertex 115 0 3
      vertex 80 0 3
    endloop
  endfacet
  facet normal 0 -1 -0
    outer loop
      vertex 115 0 3
      vertex 80 0 0
      vertex 115 0 0
    endloop
  endfacet
  facet normal 0 1 -0
    outer loop
      vertex 115 30 0
      vertex 80 30 3
      vertex 115 30 3
    endloop
  endfacet
  facet normal 0 1 0
    outer loop
      vertex 80 30 3
      vertex 115 30 0
      vertex 80 30 0
    endloop
  endfacet
  facet normal -0.951056 -0.309019 0
    outer loop
      vertex 89 6 2
      vertex 88.427 7.76336 3
      vertex 88.427 7.76336 2
    endloop
  endfacet
  facet normal -0.951056 -0.309019 0
    outer loop
      vertex 88.427 7.76336 3
      vertex 89 6 2
      vertex 89 6 3
    endloop
  endfacet
  facet normal 0.951056 0.309019 0
    outer loop
      vertex 83.573 4.23664 3
      vertex 83 6 2
      vertex 83 6 3
    endloop
  endfacet
  facet normal 0.951056 0.309019 0
    outer loop
      vertex 83 6 2
      vertex 83.573 4.23664 3
      vertex 83.573 4.23664 2
    endloop
  endfacet
  facet normal 0 -1 0
    outer loop
      vertex 85.073 8.85317 2
      vertex 86.927 8.85317 3
      vertex 85.073 8.85317 3
    endloop
  endfacet
  facet normal 0 -1 -0
    outer loop
      vertex 86.927 8.85317 3
      vertex 85.073 8.85317 2
      vertex 86.927 8.85317 2
    endloop
  endfacet
  facet normal -0.587785 -0.809017 0
    outer loop
      vertex 86.927 8.85317 2
      vertex 88.427 7.76336 3
      vertex 86.927 8.85317 3
    endloop
  endfacet
  facet normal -0.587785 -0.809017 -0
    outer loop
      vertex 88.427 7.76336 3
      vertex 86.927 8.85317 2
      vertex 88.427 7.76336 2
    endloop
  endfacet
  facet normal 0.587785 -0.809017 0
    outer loop
      vertex 83.573 7.76336 2
      vertex 85.073 8.85317 3
      vertex 83.573 7.76336 3
    endloop
  endfacet
  facet normal 0.587785 -0.809017 0
    outer loop
      vertex 85.073 8.85317 3
      vertex 83.573 7.76336 2
      vertex 85.073 8.85317 2
    endloop
  endfacet
  facet normal -0.587785 0.809017 0
    outer loop
      vertex 88.427 4.23664 2
      vertex 86.927 3.14683 3
      vertex 88.427 4.23664 3
    endloop
  endfacet
  facet normal -0.587785 0.809017 0
    outer loop
      vertex 86.927 3.14683 3
      vertex 88.427 4.23664 2
      vertex 86.927 3.14683 2
    endloop
  endfacet
  facet normal 0.587785 0.809017 -0
    outer loop
      vertex 85.073 3.14683 2
      vertex 83.573 4.23664 3
      vertex 85.073 3.14683 3
    endloop
  endfacet
  facet normal 0.587785 0.809017 0
    outer loop
      vertex 83.573 4.23664 3
      vertex 85.073 3.14683 2
      vertex 83.573 4.23664 2
    endloop
  endfacet
  facet normal 0 0 1
    outer loop
      vertex 88.427 7.76336 2
      vertex 88.427 4.23664 2
      vertex 89 6 2
    endloop
  endfacet
  facet normal 0 0 1
    outer loop
      vertex 86.927 8.85317 2
      vertex 88.427 4.23664 2
      vertex 88.427 7.76336 2
    endloop
  endfacet
  facet normal 0 0 1
    outer loop
      vertex 86.927 8.85317 2
      vertex 86.927 3.14683 2
      vertex 88.427 4.23664 2
    endloop
  endfacet
  facet normal -0 0 1
    outer loop
      vertex 85.073 8.85317 2
      vertex 86.927 3.14683 2
      vertex 86.927 8.85317 2
    endloop
  endfacet
  facet normal 0 0 1
    outer loop
      vertex 85.073 8.85317 2
      vertex 85.073 3.14683 2
      vertex 86.927 3.14683 2
    endloop
  endfacet
  facet normal -0 0 1
    outer loop
      vertex 83.573 7.76336 2
      vertex 85.073 3.14683 2
      vertex 85.073 8.85317 2
    endloop
  endfacet
  facet normal 0 0 1
    outer loop
      vertex 83.573 7.76336 2
      vertex 83.573 4.23664 2
      vertex 85.073 3.14683 2
    endloop
  endfacet
  facet normal 0 -0 1
    outer loop
      vertex 83.573 4.23664 2
      vertex 83.573 7.76336 2
      vertex 83 6 2
    endloop
  endfacet
  facet normal 0.951056 -0.309019 0
    outer loop
      vertex 83 6 3
      vertex 83.573 7.76336 2
      vertex 83.573 7.76336 3
    endloop
  endfacet
  facet normal 0.951056 -0.309019 0
    outer loop
      vertex 83.573 7.76336 2
      vertex 83 6 3
      vertex 83 6 2
    endloop
  endfacet
  facet normal -0.951056 0.309019 0
    outer loop
      vertex 88.427 4.23664 2
      vertex 89 6 3
      vertex 89 6 2
    endloop
  endfacet
  facet normal -0.951056 0.309019 0
    outer loop
      vertex 89 6 3
      vertex 88.427 4.23664 2
      vertex 88.427 4.23664 3
    endloop
  endfacet
  facet normal 0 1 -0
    outer loop
      vertex 86.927 3.14683 2
      vertex 85.073 3.14683 3
      vertex 86.927 3.14683 3
    endloop
  endfacet
  facet normal 0 1 0
    outer loop
      vertex 85.073 3.14683 3
      vertex 86.927 3.14683 2
      vertex 85.073 3.14683 2
    endloop
  endfacet
  facet normal -0.951056 -0.309019 0
    outer loop
      vertex 97 6 2
      vertex 96.427 7.76336 3
      vertex 96.427 7.76336 2
    endloop
  endfacet
  facet normal -0.951056 -0.309019 0
    outer loop
      vertex 96.427 7.76336 3
      vertex 97 6 2
      vertex 97 6 3
    endloop
  endfacet
  facet normal 0.951056 0.309019 0
    outer loop
      vertex 91.573 4.23664 3
      vertex 91 6 2
      vertex 91 6 3
    endloop
  endfacet
  facet normal 0.951056 0.309019 0
    outer loop
      vertex 91 6 2
      vertex 91.573 4.23664 3
      vertex 91.573 4.23664 2
    endloop
  endfacet
  facet normal 0 -1 0
    outer loop
      vertex 93.073 8.85317 2
      vertex 94.927 8.85317 3
      vertex 93.073 8.85317 3
    endloop
  endfacet
  facet normal 0 -1 -0
    outer loop
      vertex 94.927 8.85317 3
      vertex 93.073 8.85317 2
      vertex 94.927 8.85317 2
    endloop
  endfacet
  facet normal -0.587785 -0.809017 0
    outer loop
      vertex 94.927 8.85317 2
      vertex 96.427 7.76336 3
      vertex 94.927 8.85317 3
    endloop
  endfacet
  facet normal -0.587785 -0.809017 -0
    outer loop
      vertex 96.427 7.76336 3
      vertex 94.927 8.85317 2
      vertex 96.427 7.76336 2
    endloop
  endfacet
  facet normal 0.587785 -0.809017 0
    outer loop
      vertex 91.573 7.76336 2
      vertex 93.073 8.85317 3
      vertex 91.573 7.76336 3
    endloop
  endfacet
  facet normal 0.587785 -0.809017 0
    outer loop
      vertex 93.073 8.85317 3
      vertex 91.573 7.76336 2
      vertex 93.073 8.85317 2
    endloop
  endfacet
  facet normal -0.587785 0.809017 0
    outer loop
      vertex 96.427 4.23664 2
      vertex 94.927 3.14683 3
      vertex 96.427 4.23664 3
    endloop
  endfacet
  facet normal -0.587785 0.809017 0
    outer loop
      vertex 94.927 3.14683 3
      vertex 96.427 4.23664 2
      vertex 94.927 3.14683 2
    endloop
  endfacet
  facet normal 0.587785 0.809017 -0
    outer loop
      vertex 93.073 3.14683 2
      vertex 91.573 4.23664 3
      vertex 93.073 3.14683 3
    endloop
  endfacet
  facet normal 0.587785 0.809017 0
    outer loop
      vertex 91.573 4.23664 3
      vertex 93.073 3.14683 2
      vertex 91.573 4.23664 2
    endloop
  endfacet
  facet normal 0 0 1
    outer loop
      vertex 96.427 7.76336 2
      vertex 96.427 4.23664 2
      vertex 97 6 2
    endloop
  endfacet
  facet normal 0 0 1
    outer loop
      vertex 94.927 8.85317 2
      vertex 96.427 4.23664 2
      vertex 96.427 7.76336 2
    endloop
  endfacet
  facet normal 0 0 1
    outer loop
      vertex 94.927 8.85317 2
      vertex 94.927 3.14683 2
      vertex 96.427 4.23664 2
    endloop
  endfacet
  facet normal -0 0 1
    outer loop
      vertex 93.073 8.85317 2
      vertex 94.927 3.14683 2
      vertex 94.927 8.85317 2
    endloop
  endfacet
  facet normal 0 0 1
    outer loop
      vertex 93.073 8.85317 2
      vertex 93.073 3.14683 2
      vertex 94.927 3.14683 2
    endloop
  endfacet
  facet normal -0 0 1
    outer loop
      vertex 91.573 7.76336 2
      vertex 93.073 3.14683 2
      vertex 93.073 8.85317 2
    endloop
  endfacet
  facet normal 0 0 1
    outer loop
      vertex 91.573 7.76336 2
      vertex 91.573 4.23664 2
      vertex 93.073 3.14683 2
    endloop
  endfacet
  facet normal 0 -0 1
    outer loop
      vertex 91.573 4.23664 2
      vertex 91.573 7.76336 2
      vertex 91 6 2
    endloop
  endfacet
  facet normal 0.951056 -0.309019 0
    outer loop
      vertex 91 6 3
      vertex 91.573 7.76336 2
      vertex 91.573 7.76336 3
    endloop
  endfacet
  facet normal 0.951056 -0.309019 0
    outer loop
      vertex 91.573 7.76336 2
      vertex 91 6 3
      vertex 91 6 2
    endloop
  endfacet
  facet normal 0 1 -0
    outer loop
      vertex 94.927 3.14683 2
      vertex 93.073 3.14683 3
      vertex 94.927 3.14683 3
    endloop
  endfacet
  facet normal 0 1 0
    outer loop
      vertex 93.073 3.14683 3
      vertex 94.927 3.14683 2
      vertex 93.073 3.14683 2
    endloop
  endfacet
  facet normal -0.951056 0.309019 0
    outer loop
      vertex 96.427 4.23664 2
      vertex 97 6 3
      vertex 97 6 2
    endloop
  endfacet
  facet normal -0.951056 0.309019 0
    outer loop
      vertex 97 6 3
      vertex 96.427 4.23664 2
      vertex 96.427 4.23664 3
    endloop
  endfacet
  facet normal -0.951056 -0.309019 0
    outer loop
      vertex 105 6 2
      vertex 104.427 7.76336 3
      vertex 104.427 7.76336 2
    endloop
  endfacet
  facet normal -0.951056 -0.309019 0
    outer loop
      vertex 104.427 7.76336 3
      vertex 105 6 2
      vertex 105 6 3
    endloop
  endfacet
  facet normal 0.951056 0.309019 0
    outer loop
      vertex 99.573 4.23664 3
      vertex 99 6 2
      vertex 99 6 3
    endloop
  endfacet
  facet normal 0.951056 0.309019 0
    outer loop
      vertex 99 6 2
      vertex 99.573 4.23664 3
      vertex 99.573 4.23664 2
    endloop
  endfacet
  facet normal 0 -1 0
    outer loop
      vertex 101.073 8.85317 2
      vertex 102.927 8.85317 3
      vertex 101.073 8.85317 3
    endloop
  endfacet
  facet normal 0 -1 -0
    outer loop
      vertex 102.927 8.85317 3
      vertex 101.073 8.85317 2
      vertex 102.927 8.85317 2
    endloop
  endfacet
  facet normal -0.587785 -0.809017 0
    outer loop
      vertex 102.927 8.85317 2
      vertex 104.427 7.76336 3
      vertex 102.927 8.85317 3
    endloop
  endfacet
  facet normal -0.587785 -0.809017 -0
    outer loop
      vertex 104.427 7.76336 3
      vertex 102.927 8.85317 2
      vertex 104.427 7.76336 2
    endloop
  endfacet
  facet normal 0.587785 -0.809017 0
    outer loop
      vertex 99.573 7.76336 2
      vertex 101.073 8.85317 3
      vertex 99.573 7.76336 3
    endloop
  endfacet
  facet normal 0.587785 -0.809017 0
    outer loop
      vertex 101.073 8.85317 3
      vertex 99.573 7.76336 2
      vertex 101.073 8.85317 2
    endloop
  endfacet
  facet normal -0.587785 0.809017 0
    outer loop
      vertex 104.427 4.23664 2
      vertex 102.927 3.14683 3
      vertex 104.427 4.23664 3
    endloop
  endfacet
  facet normal -0.587785 0.809017 0
    outer loop
      vertex 102.927 3.14683 3
      vertex 104.427 4.23664 2
      vertex 102.927 3.14683 2
    endloop
  endfacet
  facet normal 0.587785 0.809017 -0
    outer loop
      vertex 101.073 3.14683 2
      vertex 99.573 4.23664 3
      vertex 101.073 3.14683 3
    endloop
  endfacet
  facet normal 0.587785 0.809017 0
    outer loop
      vertex 99.573 4.23664 3
      vertex 101.073 3.14683 2
      vertex 99.573 4.23664 2
    endloop
  endfacet
  facet normal 0 0 1
    outer loop
      vertex 104.427 7.76336 2
      vertex 104.427 4.23664 2
      vertex 105 6 2
    endloop
  endfacet
  facet normal 0 0 1
    outer loop
      vertex 102.927 8.85317 2
      vertex 104.427 4.23664 2
      vertex 104.427 7.76336 2
    endloop
  endfacet
  facet normal 0 0 1
    outer loop
      vertex 102.927 8.85317 2
      vertex 102.927 3.14683 2
      vertex 104.427 4.23664 2
    endloop
  endfacet
  facet normal -0 0 1
    outer loop
      vertex 101.073 8.85317 2
      vertex 102.927 3.14683 2
      vertex 102.927 8.85317 2
    endloop
  endfacet
  facet normal 0 0 1
    outer loop
      vertex 101.073 8.85317 2
      vertex 101.073 3.14683 2
      vertex 102.927 3.14683 2
    endloop
  endfacet
  facet normal -0 0 1
    outer loop
      vertex 99.573 7.76336 2
      vertex 101.073 3.14683 2
      vertex 101.073 8.85317 2
    endloop
  endfacet
  facet normal 0 0 1
    outer loop
      vertex 99.573 7.76336 2
      vertex 99.573 4.23664 2
      vertex 101.073 3.14683 2
    endloop
  endfacet
  facet normal 0 -0 1
    outer loop
      vertex 99.573 4.23664 2
      vertex 99.573 7.76336 2
      vertex 99 6 2
    endloop
  endfacet
  facet normal 0.951056 -0.309019 0
    outer loop
      vertex 99 6 3
      vertex 99.573 7.76336 2
      vertex 99.573 7.76336 3
    endloop
  endfacet
  facet normal 0.951056 -0.309019 0
    outer loop
      vertex 99.573 7.76336 2
      vertex 99 6 3
      vertex 99 6 2
    endloop
  endfacet
  facet normal 0 1 -0
    outer loop
      vertex 102.927 3.14683 2
      vertex 101.073 3.14683 3
      vertex 102.927 3.14683 3
    endloop
  endfacet
  facet normal 0 1 0
    outer loop
      vertex 101.073 3.14683 3
      vertex 102.927 3.14683 2
      vertex 101.073 3.14683 2
    endloop
  endfacet
  facet normal -0.951056 0.309019 0
    outer loop
      vertex 104.427 4.23664 2
      vertex 105 6 3
      vertex 105 6 2
    endloop
  endfacet
  facet normal -0.951056 0.309019 0
    outer loop
      vertex 105 6 3
      vertex 104.427 4.23664 2
      vertex 104.427 4.23664 3
    endloop
  endfacet
  facet normal -1 0 0
    outer loop
      vertex 0 39 6.88338e-15
      vertex 0 70 25
      vertex 0 70 0
    endloop
  endfacet
  facet normal -1 -0 0
    outer loop
      vertex 0 70 25
      vertex 0 39 6.88338e-15
      vertex 0 39 25
    endloop
  endfacet
  facet normal 0 -1 0
    outer loop
      vertex 0 39 25
      vertex 3 39 22
      vertex 40 39 25
    endloop
  endfacet
  facet normal 0 -1 0
    outer loop
      vertex 0 39 25
      vertex 3 39 3
      vertex 3 39 22
    endloop
  endfacet
  facet normal 0 -1 -0
    outer loop
      vertex 3 39 3
      vertex 0 39 6.88338e-15
      vertex 37 39 3
    endloop
  endfacet
  facet normal 0 -1 0
    outer loop
      vertex 0 39 6.88338e-15
      vertex 3 39 3
      vertex 0 39 25
    endloop
  endfacet
  facet normal 0 -1 0
    outer loop
      vertex 37 39 22
      vertex 40 39 25
      vertex 3 39 22
    endloop
  endfacet
  facet normal 0 -1 0
    outer loop
      vertex 37 39 3
      vertex 40 39 25
      vertex 37 39 22
    endloop
  endfacet
  facet normal 0 -1 0
    outer loop
      vertex 37 39 3
      vertex 40 39 6.88338e-15
      vertex 40 39 25
    endloop
  endfacet
  facet normal 0 -1 0
    outer loop
      vertex 40 39 6.88338e-15
      vertex 37 39 3
      vertex 0 39 6.88338e-15
    endloop
  endfacet
  facet normal 1 -0 0
    outer loop
      vertex 40 39 25
      vertex 40 70 0
      vertex 40 70 25
    endloop
  endfacet
  facet normal 1 0 0
    outer loop
      vertex 40 70 0
      vertex 40 39 25
      vertex 40 39 6.88338e-15
    endloop
  endfacet
  facet normal 0 1 -0
    outer loop
      vertex 40 70 0
      vertex 0 70 25
      vertex 40 70 25
    endloop
  endfacet
  facet normal 0 1 0
    outer loop
      vertex 0 70 25
      vertex 40 70 0
      vertex 0 70 0
    endloop
  endfacet
  facet normal 0 -2.22045e-16 -1
    outer loop
      vertex 0 39 6.88338e-15
      vertex 40 70 0
      vertex 40 39 6.88338e-15
    endloop
  endfacet
  facet normal -0 -2.22045e-16 -1
    outer loop
      vertex 40 70 0
      vertex 0 39 6.88338e-15
      vertex 0 70 0
    endloop
  endfacet
  facet normal 0 0 1
    outer loop
      vertex 3 43.5 25
      vertex 2 43.5 25
      vertex 3 42 25
    endloop
  endfacet
  facet normal -0 0 1
    outer loop
      vertex 37 50 25
      vertex 38 48 25
      vertex 38 50 25
    endloop
  endfacet
  facet normal 0 0 1
    outer loop
      vertex 38 48 25
      vertex 37 50 25
      vertex 37 48 25
    endloop
  endfacet
  facet normal -0 0 1
    outer loop
      vertex 37 56.5 25
      vertex 38 54 25
      vertex 38 56.5 25
    endloop
  endfacet
  facet normal 0 0 1
    outer loop
      vertex 38 54 25
      vertex 37 56.5 25
      vertex 37 54 25
    endloop
  endfacet
  facet normal -0 0 1
    outer loop
      vertex 37 62 25
      vertex 38 60 25
      vertex 38 62 25
    endloop
  endfacet
  facet normal 0 0 1
    outer loop
      vertex 38 60 25
      vertex 37 62 25
      vertex 37 60 25
    endloop
  endfacet
  facet normal 0 0 1
    outer loop
      vertex 38 62 25
      vertex 40 70 25
      vertex 38 65 25
    endloop
  endfacet
  facet normal 0 0 1
    outer loop
      vertex 40 70 25
      vertex 37 67 25
      vertex 38 65 25
    endloop
  endfacet
  facet normal 0 0 1
    outer loop
      vertex 40 70 25
      vertex 3 67 25
      vertex 37 67 25
    endloop
  endfacet
  facet normal 0 0 1
    outer loop
      vertex 3 67 25
      vertex 2 65 25
      vertex 3 65 25
    endloop
  endfacet
  facet normal 0 0 1
    outer loop
      vertex 0 70 25
      vertex 2 62 25
      vertex 2 65 25
    endloop
  endfacet
  facet normal 0 0 1
    outer loop
      vertex 2 62 25
      vertex 0 70 25
      vertex 2 60 25
    endloop
  endfacet
  facet normal 0 0 1
    outer loop
      vertex 2 60 25
      vertex 0 70 25
      vertex 2 56.5 25
    endloop
  endfacet
  facet normal 0 0 1
    outer loop
      vertex 2 56.5 25
      vertex 0 70 25
      vertex 2 54 25
    endloop
  endfacet
  facet normal 0 0 1
    outer loop
      vertex 0 39 25
      vertex 2 54 25
      vertex 0 70 25
    endloop
  endfacet
  facet normal 0 0 1
    outer loop
      vertex 2 54 25
      vertex 0 39 25
      vertex 2 50 25
    endloop
  endfacet
  facet normal 0 0 1
    outer loop
      vertex 2 50 25
      vertex 0 39 25
      vertex 2 48 25
    endloop
  endfacet
  facet normal 0 0 1
    outer loop
      vertex 3 67 25
      vertex 0 70 25
      vertex 2 65 25
    endloop
  endfacet
  facet normal -0 0 1
    outer loop
      vertex 0 70 25
      vertex 3 67 25
      vertex 40 70 25
    endloop
  endfacet
  facet normal 0 0 1
    outer loop
      vertex 38 60 25
      vertex 40 70 25
      vertex 38 62 25
    endloop
  endfacet
  facet normal 0 0 1
    outer loop
      vertex 38 56.5 25
      vertex 40 70 25
      vertex 38 60 25
    endloop
  endfacet
  facet normal 0 0 1
    outer loop
      vertex 38 54 25
      vertex 40 70 25
      vertex 38 56.5 25
    endloop
  endfacet
  facet normal 0 0 1
    outer loop
      vertex 40 70 25
      vertex 38 54 25
      vertex 40 39 25
    endloop
  endfacet
  facet normal -0 0 1
    outer loop
      vertex 38 50 25
      vertex 40 39 25
      vertex 38 54 25
    endloop
  endfacet
  facet normal -0 0 1
    outer loop
      vertex 38 48 25
      vertex 40 39 25
      vertex 38 50 25
    endloop
  endfacet
  facet normal -0 0 1
    outer loop
      vertex 38 43.5 25
      vertex 40 39 25
      vertex 38 48 25
    endloop
  endfacet
  facet normal 0 0 1
    outer loop
      vertex 37 42 25
      vertex 38 43.5 25
      vertex 37 43.5 25
    endloop
  endfacet
  facet normal 0 0 1
    outer loop
      vertex 38 43.5 25
      vertex 37 42 25
      vertex 40 39 25
    endloop
  endfacet
  facet normal -0 0 1
    outer loop
      vertex 3 42 25
      vertex 40 39 25
      vertex 37 42 25
    endloop
  endfacet
  facet normal 0 0 1
    outer loop
      vertex 3 42 25
      vertex 0 39 25
      vertex 40 39 25
    endloop
  endfacet
  facet normal 0 0 1
    outer loop
      vertex 2 43.5 25
      vertex 0 39 25
      vertex 3 42 25
    endloop
  endfacet
  facet normal 0 0 1
    outer loop
      vertex 2 48 25
      vertex 0 39 25
      vertex 2 43.5 25
    endloop
  endfacet
  facet normal 0 0 1
    outer loop
      vertex 38 65 25
      vertex 37 67 25
      vertex 37 65 25
    endloop
  endfacet
  facet normal -0 0 1
    outer loop
      vertex 2 62 25
      vertex 3 60 25
      vertex 3 62 25
    endloop
  endfacet
  facet normal 0 0 1
    outer loop
      vertex 3 60 25
      vertex 2 62 25
      vertex 2 60 25
    endloop
  endfacet
  facet normal -0 0 1
    outer loop
      vertex 2 56.5 25
      vertex 3 54 25
      vertex 3 56.5 25
    endloop
  endfacet
  facet normal 0 0 1
    outer loop
      vertex 3 54 25
      vertex 2 56.5 25
      vertex 2 54 25
    endloop
  endfacet
  facet normal -0 0 1
    outer loop
      vertex 2 50 25
      vertex 3 48 25
      vertex 3 50 25
    endloop
  endfacet
  facet normal 0 0 1
    outer loop
      vertex 3 48 25
      vertex 2 50 25
      vertex 2 48 25
    endloop
  endfacet
  facet normal 1 -0 0
    outer loop
      vertex 3 65 25
      vertex 3 67 3
      vertex 3 67 25
    endloop
  endfacet
  facet normal 1 0 0
    outer loop
      vertex 3 67 3
      vertex 3 65 25
      vertex 3 65 3
    endloop
  endfacet
  facet normal 1 0 0
    outer loop
      vertex 3 42 22
      vertex 3 43.5 25
      vertex 3 42 25
    endloop
  endfacet
  facet normal 1 0 0
    outer loop
      vertex 3 43.5 25
      vertex 3 42 22
      vertex 3 43.5 3
    endloop
  endfacet
  facet normal 1 0 0
    outer loop
      vertex 3 39 3
      vertex 3 42 22
      vertex 3 39 22
    endloop
  endfacet
  facet normal 1 0 0
    outer loop
      vertex 3 42 22
      vertex 3 39 3
      vertex 3 43.5 3
    endloop
  endfacet
  facet normal 1 -0 0
    outer loop
      vertex 3 60 25
      vertex 3 62 3
      vertex 3 62 25
    endloop
  endfacet
  facet normal 1 0 0
    outer loop
      vertex 3 62 3
      vertex 3 60 25
      vertex 3 60 3
    endloop
  endfacet
  facet normal 1 -0 0
    outer loop
      vertex 3 54 25
      vertex 3 56.5 3
      vertex 3 56.5 25
    endloop
  endfacet
  facet normal 1 0 0
    outer loop
      vertex 3 56.5 3
      vertex 3 54 25
      vertex 3 54 3
    endloop
  endfacet
  facet normal 1 -0 0
    outer loop
      vertex 3 48 25
      vertex 3 50 3
      vertex 3 50 25
    endloop
  endfacet
  facet normal 1 0 0
    outer loop
      vertex 3 50 3
      vertex 3 48 25
      vertex 3 48 3
    endloop
  endfacet
  facet normal 0 1 -0
    outer loop
      vertex 37 42 22
      vertex 3 42 25
      vertex 37 42 25
    endloop
  endfacet
  facet normal 0 1 0
    outer loop
      vertex 3 42 25
      vertex 37 42 22
      vertex 3 42 22
    endloop
  endfacet
  facet normal -1 0 0
    outer loop
      vertex 37 65 3
      vertex 37 67 25
      vertex 37 67 3
    endloop
  endfacet
  facet normal -1 -0 0
    outer loop
      vertex 37 67 25
      vertex 37 65 3
      vertex 37 65 25
    endloop
  endfacet
  facet normal -1 0 0
    outer loop
      vertex 37 43.5 3
      vertex 37 42 22
      vertex 37 43.5 25
    endloop
  endfacet
  facet normal -1 0 0
    outer loop
      vertex 37 39 3
      vertex 37 42 22
      vertex 37 43.5 3
    endloop
  endfacet
  facet normal -1 -0 0
    outer loop
      vertex 37 42 22
      vertex 37 39 3
      vertex 37 39 22
    endloop
  endfacet
  facet normal -1 -0 0
    outer loop
      vertex 37 43.5 25
      vertex 37 42 22
      vertex 37 42 25
    endloop
  endfacet
  facet normal -1 0 0
    outer loop
      vertex 37 60 3
      vertex 37 62 25
      vertex 37 62 3
    endloop
  endfacet
  facet normal -1 -0 0
    outer loop
      vertex 37 62 25
      vertex 37 60 3
      vertex 37 60 25
    endloop
  endfacet
  facet normal -1 0 0
    outer loop
      vertex 37 54 3
      vertex 37 56.5 25
      vertex 37 56.5 3
    endloop
  endfacet
  facet normal -1 -0 0
    outer loop
      vertex 37 56.5 25
      vertex 37 54 3
      vertex 37 54 25
    endloop
  endfacet
  facet normal -1 0 0
    outer loop
      vertex 37 48 3
      vertex 37 50 25
      vertex 37 50 3
    endloop
  endfacet
  facet normal -1 -0 0
    outer loop
      vertex 37 50 25
      vertex 37 48 3
      vertex 37 48 25
    endloop
  endfacet
  facet normal 0 -1 0
    outer loop
      vertex 3 67 3
      vertex 37 67 25
      vertex 3 67 25
    endloop
  endfacet
  facet normal 0 -1 -0
    outer loop
      vertex 37 67 25
      vertex 3 67 3
      vertex 37 67 3
    endloop
  endfacet
  facet normal -0 0 1
    outer loop
      vertex 3 67 3
      vertex 37 65 3
      vertex 37 67 3
    endloop
  endfacet
  facet normal 0 0 1
    outer loop
      vertex 37 65 3
      vertex 3 67 3
      vertex 3 65 3
    endloop
  endfacet
  facet normal -0 0 1
    outer loop
      vertex 3 62 3
      vertex 37 60 3
      vertex 37 62 3
    endloop
  endfacet
  facet normal 0 0 1
    outer loop
      vertex 37 60 3
      vertex 3 62 3
      vertex 3 60 3
    endloop
  endfacet
  facet normal -0 0 1
    outer loop
      vertex 3 56.5 3
      vertex 37 54 3
      vertex 37 56.5 3
    endloop
  endfacet
  facet normal 0 0 1
    outer loop
      vertex 37 54 3
      vertex 3 56.5 3
      vertex 3 54 3
    endloop
  endfacet
  facet normal -0 0 1
    outer loop
      vertex 3 50 3
      vertex 37 48 3
      vertex 37 50 3
    endloop
  endfacet
  facet normal 0 0 1
    outer loop
      vertex 37 48 3
      vertex 3 50 3
      vertex 3 48 3
    endloop
  endfacet
  facet normal -0 0 1
    outer loop
      vertex 3 43.5 3
      vertex 37 39 3
      vertex 37 43.5 3
    endloop
  endfacet
  facet normal 0 0 1
    outer loop
      vertex 37 39 3
      vertex 3 43.5 3
      vertex 3 39 3
    endloop
  endfacet
  facet normal 1 -0 0
    outer loop
      vertex 2 62 25
      vertex 2 65 2
      vertex 2 65 25
    endloop
  endfacet
  facet normal 1 0 0
    outer loop
      vertex 2 65 2
      vertex 2 62 25
      vertex 2 62 2
    endloop
  endfacet
  facet normal 0 1 0
    outer loop
      vertex 38 62 25
      vertex 37 62 3
      vertex 37 62 25
    endloop
  endfacet
  facet normal 0 1 0
    outer loop
      vertex 37 62 3
      vertex 38 62 2
      vertex 3 62 3
    endloop
  endfacet
  facet normal 0 1 -0
    outer loop
      vertex 38 62 2
      vertex 37 62 3
      vertex 38 62 25
    endloop
  endfacet
  facet normal 0 1 -0
    outer loop
      vertex 3 62 3
      vertex 2 62 25
      vertex 3 62 25
    endloop
  endfacet
  facet normal 0 1 0
    outer loop
      vertex 3 62 3
      vertex 2 62 2
      vertex 2 62 25
    endloop
  endfacet
  facet normal 0 1 0
    outer loop
      vertex 2 62 2
      vertex 3 62 3
      vertex 38 62 2
    endloop
  endfacet
  facet normal -1 0 0
    outer loop
      vertex 38 62 2
      vertex 38 65 25
      vertex 38 65 2
    endloop
  endfacet
  facet normal -1 -0 0
    outer loop
      vertex 38 65 25
      vertex 38 62 2
      vertex 38 62 25
    endloop
  endfacet
  facet normal 0 -1 0
    outer loop
      vertex 2 65 25
      vertex 3 65 3
      vertex 3 65 25
    endloop
  endfacet
  facet normal 0 -1 -0
    outer loop
      vertex 3 65 3
      vertex 2 65 2
      vertex 37 65 3
    endloop
  endfacet
  facet normal 0 -1 0
    outer loop
      vertex 2 65 2
      vertex 3 65 3
      vertex 2 65 25
    endloop
  endfacet
  facet normal 0 -1 0
    outer loop
      vertex 37 65 3
      vertex 38 65 25
      vertex 37 65 25
    endloop
  endfacet
  facet normal 0 -1 0
    outer loop
      vertex 37 65 3
      vertex 38 65 2
      vertex 38 65 25
    endloop
  endfacet
  facet normal 0 -1 0
    outer loop
      vertex 38 65 2
      vertex 37 65 3
      vertex 2 65 2
    endloop
  endfacet
  facet normal -0 0 1
    outer loop
      vertex 2 65 2
      vertex 38 62 2
      vertex 38 65 2
    endloop
  endfacet
  facet normal 0 0 1
    outer loop
      vertex 38 62 2
      vertex 2 65 2
      vertex 2 62 2
    endloop
  endfacet
  facet normal 1 -0 0
    outer loop
      vertex 2 56.5 25
      vertex 2 60 2
      vertex 2 60 25
    endloop
  endfacet
  facet normal 1 0 0
    outer loop
      vertex 2 60 2
      vertex 2 56.5 25
      vertex 2 56.5 2
    endloop
  endfacet
  facet normal 0 1 0
    outer loop
      vertex 38 56.5 25
      vertex 37 56.5 3
      vertex 37 56.5 25
    endloop
  endfacet
  facet normal 0 1 0
    outer loop
      vertex 37 56.5 3
      vertex 38 56.5 2
      vertex 3 56.5 3
    endloop
  endfacet
  facet normal 0 1 -0
    outer loop
      vertex 38 56.5 2
      vertex 37 56.5 3
      vertex 38 56.5 25
    endloop
  endfacet
  facet normal 0 1 -0
    outer loop
      vertex 3 56.5 3
      vertex 2 56.5 25
      vertex 3 56.5 25
    endloop
  endfacet
  facet normal 0 1 0
    outer loop
      vertex 3 56.5 3
      vertex 2 56.5 2
      vertex 2 56.5 25
    endloop
  endfacet
  facet normal 0 1 0
    outer loop
      vertex 2 56.5 2
      vertex 3 56.5 3
      vertex 38 56.5 2
    endloop
  endfacet
  facet normal -1 0 0
    outer loop
      vertex 38 56.5 2
      vertex 38 60 25
      vertex 38 60 2
    endloop
  endfacet
  facet normal -1 -0 0
    outer loop
      vertex 38 60 25
      vertex 38 56.5 2
      vertex 38 56.5 25
    endloop
  endfacet
  facet normal 0 -1 0
    outer loop
      vertex 2 60 25
      vertex 3 60 3
      vertex 3 60 25
    endloop
  endfacet
  facet normal 0 -1 -0
    outer loop
      vertex 3 60 3
      vertex 2 60 2
      vertex 37 60 3
    endloop
  endfacet
  facet normal 0 -1 0
    outer loop
      vertex 2 60 2
      vertex 3 60 3
      vertex 2 60 25
    endloop
  endfacet
  facet normal 0 -1 0
    outer loop
      vertex 37 60 3
      vertex 38 60 25
      vertex 37 60 25
    endloop
  endfacet
  facet normal 0 -1 0
    outer loop
      vertex 37 60 3
      vertex 38 60 2
      vertex 38 60 25
    endloop
  endfacet
  facet normal 0 -1 0
    outer loop
      vertex 38 60 2
      vertex 37 60 3
      vertex 2 60 2
    endloop
  endfacet
  facet normal -0 0 1
    outer loop
      vertex 2 60 2
      vertex 38 56.5 2
      vertex 38 60 2
    endloop
  endfacet
  facet normal 0 0 1
    outer loop
      vertex 38 56.5 2
      vertex 2 60 2
      vertex 2 56.5 2
    endloop
  endfacet
  facet normal 1 -0 0
    outer loop
      vertex 2 50 25
      vertex 2 54 2
      vertex 2 54 25
    endloop
  endfacet
  facet normal 1 0 0
    outer loop
      vertex 2 54 2
      vertex 2 50 25
      vertex 2 50 2
    endloop
  endfacet
  facet normal 0 1 0
    outer loop
      vertex 38 50 25
      vertex 37 50 3
      vertex 37 50 25
    endloop
  endfacet
  facet normal 0 1 0
    outer loop
      vertex 37 50 3
      vertex 38 50 2
      vertex 3 50 3
    endloop
  endfacet
  facet normal 0 1 -0
    outer loop
      vertex 38 50 2
      vertex 37 50 3
      vertex 38 50 25
    endloop
  endfacet
  facet normal 0 1 -0
    outer loop
      vertex 3 50 3
      vertex 2 50 25
      vertex 3 50 25
    endloop
  endfacet
  facet normal 0 1 0
    outer loop
      vertex 3 50 3
      vertex 2 50 2
      vertex 2 50 25
    endloop
  endfacet
  facet normal 0 1 0
    outer loop
      vertex 2 50 2
      vertex 3 50 3
      vertex 38 50 2
    endloop
  endfacet
  facet normal -1 0 0
    outer loop
      vertex 38 50 2
      vertex 38 54 25
      vertex 38 54 2
    endloop
  endfacet
  facet normal -1 -0 0
    outer loop
      vertex 38 54 25
      vertex 38 50 2
      vertex 38 50 25
    endloop
  endfacet
  facet normal 0 -1 0
    outer loop
      vertex 2 54 25
      vertex 3 54 3
      vertex 3 54 25
    endloop
  endfacet
  facet normal 0 -1 -0
    outer loop
      vertex 3 54 3
      vertex 2 54 2
      vertex 37 54 3
    endloop
  endfacet
  facet normal 0 -1 0
    outer loop
      vertex 2 54 2
      vertex 3 54 3
      vertex 2 54 25
    endloop
  endfacet
  facet normal 0 -1 0
    outer loop
      vertex 37 54 3
      vertex 38 54 25
      vertex 37 54 25
    endloop
  endfacet
  facet normal 0 -1 0
    outer loop
      vertex 37 54 3
      vertex 38 54 2
      vertex 38 54 25
    endloop
  endfacet
  facet normal 0 -1 0
    outer loop
      vertex 38 54 2
      vertex 37 54 3
      vertex 2 54 2
    endloop
  endfacet
  facet normal -0 0 1
    outer loop
      vertex 2 54 2
      vertex 38 50 2
      vertex 38 54 2
    endloop
  endfacet
  facet normal 0 0 1
    outer loop
      vertex 38 50 2
      vertex 2 54 2
      vertex 2 50 2
    endloop
  endfacet
  facet normal 1 -0 0
    outer loop
      vertex 2 43.5 25
      vertex 2 48 2
      vertex 2 48 25
    endloop
  endfacet
  facet normal 1 0 0
    outer loop
      vertex 2 48 2
      vertex 2 43.5 25
      vertex 2 43.5 2
    endloop
  endfacet
  facet normal 0 1 0
    outer loop
      vertex 38 43.5 25
      vertex 37 43.5 3
      vertex 37 43.5 25
    endloop
  endfacet
  facet normal 0 1 0
    outer loop
      vertex 37 43.5 3
      vertex 38 43.5 2
      vertex 3 43.5 3
    endloop
  endfacet
  facet normal 0 1 -0
    outer loop
      vertex 38 43.5 2
      vertex 37 43.5 3
      vertex 38 43.5 25
    endloop
  endfacet
  facet normal 0 1 -0
    outer loop
      vertex 3 43.5 3
      vertex 2 43.5 25
      vertex 3 43.5 25
    endloop
  endfacet
  facet normal 0 1 0
    outer loop
      vertex 3 43.5 3
      vertex 2 43.5 2
      vertex 2 43.5 25
    endloop
  endfacet
  facet normal 0 1 0
    outer loop
      vertex 2 43.5 2
      vertex 3 43.5 3
      vertex 38 43.5 2
    endloop
  endfacet
  facet normal -1 0 0
    outer loop
      vertex 38 43.5 2
      vertex 38 48 25
      vertex 38 48 2
    endloop
  endfacet
  facet normal -1 -0 0
    outer loop
      vertex 38 48 25
      vertex 38 43.5 2
      vertex 38 43.5 25
    endloop
  endfacet
  facet normal 0 -1 0
    outer loop
      vertex 2 48 25
      vertex 3 48 3
      vertex 3 48 25
    endloop
  endfacet
  facet normal 0 -1 -0
    outer loop
      vertex 3 48 3
      vertex 2 48 2
      vertex 37 48 3
    endloop
  endfacet
  facet normal 0 -1 0
    outer loop
      vertex 2 48 2
      vertex 3 48 3
      vertex 2 48 25
    endloop
  endfacet
  facet normal 0 -1 0
    outer loop
      vertex 37 48 3
      vertex 38 48 25
      vertex 37 48 25
    endloop
  endfacet
  facet normal 0 -1 0
    outer loop
      vertex 37 48 3
      vertex 38 48 2
      vertex 38 48 25
    endloop
  endfacet
  facet normal 0 -1 0
    outer loop
      vertex 38 48 2
      vertex 37 48 3
      vertex 2 48 2
    endloop
  endfacet
  facet normal -0 0 1
    outer loop
      vertex 2 48 2
      vertex 38 43.5 2
      vertex 38 48 2
    endloop
  endfacet
  facet normal 0 0 1
    outer loop
      vertex 38 43.5 2
      vertex 2 48 2
      vertex 2 43.5 2
    endloop
  endfacet
  facet normal 0 0 -1
    outer loop
      vertex 3 39 22
      vertex 37 42 22
      vertex 37 39 22
    endloop
  endfacet
  facet normal -0 0 -1
    outer loop
      vertex 37 42 22
      vertex 3 39 22
      vertex 3 42 22
    endloop
  endfacet
endsolid OpenSCAD_Model
